<svg width="1600" height="900" viewBox="0 0 1600 900" xmlns="http://www.w3.org/2000/svg" role="img" aria-label="Junior golfer with tablet login">
  <rect width="1600" height="900" fill="#cbe9ff"/>
  <rect y="560" width="1600" height="340" fill="#78c26a"/>
  <rect x="1020" y="240" width="360" height="260" rx="24" fill="#ffffff" stroke="#bdd5e7" stroke-width="8"/>
  <rect x="1060" y="302" width="280" height="22" rx="11" fill="#dbe9f4"/>
  <rect x="1060" y="344" width="220" height="22" rx="11" fill="#dbe9f4"/>
  <rect x="1060" y="390" width="170" height="44" rx="10" fill="#2f7bd8"/>

  <g transform="translate(700 420)">
    <circle cx="0" cy="-84" r="38" fill="#f2c8a4"/>
    <path d="M-32 -94 q32 -34 64 0 v16 h-64z" fill="#2b2f35"/>
    <rect x="-34" y="-40" width="68" height="122" rx="16" fill="#f46f6f"/>
    <rect x="-76" y="-16" width="42" height="14" rx="7" transform="rotate(-12)" fill="#f46f6f"/>
    <rect x="34" y="-8" width="62" height="14" rx="7" transform="rotate(18)" fill="#f46f6f"/>
    <rect x="86" y="6" width="72" height="92" rx="10" transform="rotate(16)" fill="#2a3542"/>
    <rect x="96" y="20" width="52" height="66" rx="8" transform="rotate(16)" fill="#eaf2f8"/>
    <rect x="-30" y="82" width="22" height="128" rx="10" fill="#2f4461"/>
    <rect x="8" y="82" width="22" height="128" rx="10" fill="#2f4461"/>
  </g>
</svg>
