<svg width="1600" height="900" viewBox="0 0 1600 900" xmlns="http://www.w3.org/2000/svg" role="img" aria-label="Junior golfer lesson practice">
  <rect width="1600" height="900" fill="#d6f0ff"/>
  <rect y="560" width="1600" height="340" fill="#79c86c"/>
  <ellipse cx="460" cy="740" rx="300" ry="110" fill="#6ab75f"/>
  <ellipse cx="1160" cy="750" rx="380" ry="120" fill="#62ad58"/>

  <g transform="translate(560 420)">
    <circle cx="0" cy="-86" r="36" fill="#f1c7a4"/>
    <path d="M-32 -96 q34 -30 64 0 v16 h-64z" fill="#2f2f2f"/>
    <rect x="-34" y="-40" width="68" height="124" rx="16" fill="#ffb347"/>
    <rect x="-30" y="84" width="24" height="130" rx="10" fill="#1f4a73"/>
    <rect x="6" y="84" width="24" height="130" rx="10" fill="#1f4a73"/>
  </g>

  <g transform="translate(860 430)">
    <circle cx="0" cy="-84" r="34" fill="#f0c39a"/>
    <path d="M-30 -94 q30 -28 60 0 v14 h-60z" fill="#65452f"/>
    <rect x="-30" y="-42" width="60" height="122" rx="14" fill="#3a9b64"/>
    <rect x="-74" y="-16" width="48" height="14" rx="7" transform="rotate(-20)" fill="#3a9b64"/>
    <rect x="26" y="-16" width="74" height="12" rx="6" transform="rotate(26)" fill="#3a9b64"/>
    <rect x="92" y="-10" width="10" height="238" transform="rotate(20)" fill="#b9c4cf"/>
    <path d="M164 150 q20 -18 46 -4 q-8 30 -38 38 q-16 -6 -8 -34z" fill="#8fa5b7"/>
    <rect x="-26" y="80" width="20" height="126" rx="10" fill="#243f5b"/>
    <rect x="6" y="80" width="20" height="126" rx="10" fill="#243f5b"/>
  </g>

  <circle cx="1060" cy="738" r="10" fill="#ffffff" stroke="#d2d2d2" stroke-width="2"/>
</svg>
