<?xml version="1.0" encoding="UTF-8"?>
<svg id="Layer_1" data-name="Layer 1" xmlns="http://www.w3.org/2000/svg" xmlns:xlink="http://www.w3.org/1999/xlink" viewBox="0 0 515 514">
  <defs>
    <style>
      .cls-1 {
        fill: url(#linear-gradient-8);
      }

      .cls-2 {
        fill: url(#linear-gradient-7);
      }

      .cls-3 {
        fill: url(#linear-gradient-5);
      }

      .cls-4 {
        fill: url(#linear-gradient-6);
      }

      .cls-5 {
        fill: url(#linear-gradient-9);
      }

      .cls-6 {
        fill: url(#linear-gradient-4);
      }

      .cls-7 {
        fill: url(#linear-gradient-3);
      }

      .cls-8 {
        fill: url(#linear-gradient-2);
      }

      .cls-9 {
        fill: #231f20;
      }

      .cls-10 {
        fill: url(#linear-gradient);
      }

      .cls-11 {
        fill: #be1e2d;
        stroke: #fff;
        stroke-linecap: round;
        stroke-width: 5px;
      }

      .cls-11, .cls-12, .cls-13, .cls-14, .cls-15 {
        stroke-miterlimit: 10;
      }

      .cls-12, .cls-16, .cls-15 {
        fill: #fff;
      }

      .cls-12, .cls-13, .cls-14 {
        stroke: #000;
      }

      .cls-17 {
        fill: url(#linear-gradient-43);
      }

      .cls-18 {
        fill: url(#linear-gradient-40);
      }

      .cls-19 {
        fill: url(#linear-gradient-41);
      }

      .cls-20 {
        fill: url(#linear-gradient-42);
      }

      .cls-21 {
        fill: url(#linear-gradient-49);
      }

      .cls-22 {
        fill: url(#linear-gradient-48);
      }

      .cls-23 {
        fill: url(#linear-gradient-45);
      }

      .cls-24 {
        fill: url(#linear-gradient-47);
      }

      .cls-25 {
        fill: url(#linear-gradient-44);
      }

      .cls-26 {
        fill: url(#linear-gradient-46);
      }

      .cls-27 {
        fill: url(#linear-gradient-10);
      }

      .cls-28 {
        fill: url(#linear-gradient-11);
      }

      .cls-29 {
        fill: url(#linear-gradient-12);
      }

      .cls-30 {
        fill: url(#linear-gradient-13);
      }

      .cls-31 {
        fill: url(#linear-gradient-19);
      }

      .cls-32 {
        fill: url(#linear-gradient-14);
      }

      .cls-33 {
        fill: url(#linear-gradient-21);
      }

      .cls-34 {
        fill: url(#linear-gradient-20);
      }

      .cls-35 {
        fill: url(#linear-gradient-22);
      }

      .cls-36 {
        fill: url(#linear-gradient-23);
      }

      .cls-37 {
        fill: url(#linear-gradient-28);
      }

      .cls-38 {
        fill: url(#linear-gradient-25);
      }

      .cls-39 {
        fill: url(#linear-gradient-32);
      }

      .cls-40 {
        fill: url(#linear-gradient-31);
      }

      .cls-41 {
        fill: url(#linear-gradient-33);
      }

      .cls-42 {
        fill: url(#linear-gradient-30);
      }

      .cls-43 {
        fill: url(#linear-gradient-15);
      }

      .cls-44 {
        fill: url(#linear-gradient-16);
      }

      .cls-45 {
        fill: url(#linear-gradient-17);
      }

      .cls-46 {
        fill: url(#linear-gradient-18);
      }

      .cls-47 {
        fill: url(#linear-gradient-35);
      }

      .cls-48 {
        fill: url(#linear-gradient-34);
      }

      .cls-49 {
        fill: url(#linear-gradient-36);
      }

      .cls-50 {
        fill: url(#linear-gradient-38);
      }

      .cls-51 {
        fill: url(#linear-gradient-27);
      }

      .cls-52 {
        fill: url(#linear-gradient-24);
      }

      .cls-53 {
        fill: url(#linear-gradient-26);
      }

      .cls-54 {
        fill: url(#linear-gradient-29);
      }

      .cls-55 {
        fill: url(#linear-gradient-37);
      }

      .cls-56 {
        fill: url(#linear-gradient-39);
      }

      .cls-57 {
        fill: url(#linear-gradient-57);
      }

      .cls-58 {
        fill: url(#linear-gradient-58);
      }

      .cls-59 {
        fill: url(#linear-gradient-59);
      }

      .cls-60 {
        fill: url(#linear-gradient-53);
      }

      .cls-61 {
        fill: url(#linear-gradient-54);
      }

      .cls-62 {
        fill: url(#linear-gradient-55);
      }

      .cls-63 {
        fill: url(#linear-gradient-56);
      }

      .cls-64 {
        fill: url(#linear-gradient-50);
      }

      .cls-65 {
        fill: url(#linear-gradient-51);
      }

      .cls-66 {
        fill: url(#linear-gradient-52);
      }

      .cls-67 {
        fill: url(#linear-gradient-67);
      }

      .cls-68 {
        fill: url(#linear-gradient-68);
      }

      .cls-69 {
        fill: url(#linear-gradient-69);
      }

      .cls-70 {
        fill: url(#linear-gradient-63);
      }

      .cls-71 {
        fill: url(#linear-gradient-64);
      }

      .cls-72 {
        fill: url(#linear-gradient-65);
      }

      .cls-73 {
        fill: url(#linear-gradient-66);
      }

      .cls-74 {
        fill: url(#linear-gradient-60);
      }

      .cls-75 {
        fill: url(#linear-gradient-61);
      }

      .cls-76 {
        fill: url(#linear-gradient-62);
      }

      .cls-77 {
        fill: url(#linear-gradient-79);
      }

      .cls-78 {
        fill: url(#linear-gradient-78);
      }

      .cls-79 {
        fill: url(#linear-gradient-75);
      }

      .cls-80 {
        fill: url(#linear-gradient-72);
      }

      .cls-81 {
        fill: url(#linear-gradient-77);
      }

      .cls-82 {
        fill: url(#linear-gradient-74);
      }

      .cls-83 {
        fill: url(#linear-gradient-76);
      }

      .cls-84 {
        fill: url(#linear-gradient-71);
      }

      .cls-85 {
        fill: url(#linear-gradient-73);
      }

      .cls-86 {
        fill: url(#linear-gradient-70);
      }

      .cls-87 {
        fill: url(#linear-gradient-87);
      }

      .cls-88 {
        fill: url(#linear-gradient-88);
      }

      .cls-89 {
        fill: url(#linear-gradient-89);
      }

      .cls-90 {
        fill: url(#linear-gradient-85);
      }

      .cls-91 {
        fill: url(#linear-gradient-83);
      }

      .cls-92 {
        fill: url(#linear-gradient-82);
      }

      .cls-93 {
        fill: url(#linear-gradient-84);
      }

      .cls-94 {
        fill: url(#linear-gradient-86);
      }

      .cls-95 {
        fill: url(#linear-gradient-81);
      }

      .cls-96 {
        fill: url(#linear-gradient-80);
      }

      .cls-97 {
        fill: url(#linear-gradient-99);
      }

      .cls-98 {
        fill: url(#linear-gradient-96);
      }

      .cls-99 {
        fill: url(#linear-gradient-97);
      }

      .cls-100 {
        fill: url(#linear-gradient-98);
      }

      .cls-101 {
        fill: url(#linear-gradient-92);
      }

      .cls-102 {
        fill: url(#linear-gradient-93);
      }

      .cls-103 {
        fill: url(#linear-gradient-94);
      }

      .cls-104 {
        fill: url(#linear-gradient-91);
      }

      .cls-105 {
        fill: url(#linear-gradient-95);
      }

      .cls-106 {
        fill: url(#linear-gradient-90);
      }

      .cls-13 {
        stroke-width: 1.34px;
      }

      .cls-13, .cls-14 {
        fill: #d5af33;
      }

      .cls-14 {
        stroke-width: 2.2px;
      }

      .cls-107 {
        fill: url(#linear-gradient-107);
      }

      .cls-108 {
        fill: url(#linear-gradient-108);
      }

      .cls-109 {
        fill: url(#linear-gradient-109);
      }

      .cls-110 {
        fill: url(#linear-gradient-105);
      }

      .cls-111 {
        fill: url(#linear-gradient-106);
      }

      .cls-112 {
        fill: url(#linear-gradient-104);
      }

      .cls-113 {
        fill: url(#linear-gradient-103);
      }

      .cls-114 {
        fill: url(#linear-gradient-102);
      }

      .cls-115 {
        fill: url(#linear-gradient-101);
      }

      .cls-116 {
        fill: url(#linear-gradient-100);
      }

      .cls-117 {
        fill: url(#linear-gradient-110);
      }

      .cls-118 {
        fill: url(#linear-gradient-114);
      }

      .cls-119 {
        fill: url(#linear-gradient-113);
      }

      .cls-120 {
        fill: url(#linear-gradient-112);
      }

      .cls-121 {
        fill: url(#linear-gradient-111);
      }

      .cls-15 {
        stroke: #231f20;
        stroke-width: 1.43px;
      }
    </style>
    <linearGradient id="linear-gradient" x1="228.52" y1="189.72" x2="331.56" y2="443.36" gradientUnits="userSpaceOnUse">
      <stop offset="0" stop-color="#7a7a7a"/>
      <stop offset="1" stop-color="#383d3d"/>
    </linearGradient>
    <linearGradient id="linear-gradient-2" x1="81.85" y1="257.94" x2="184.91" y2="511.62" xlink:href="#linear-gradient"/>
    <linearGradient id="linear-gradient-3" x1="61.21" y1="266.32" x2="164.26" y2="520.01" xlink:href="#linear-gradient"/>
    <linearGradient id="linear-gradient-4" x1="45.64" y1="272.64" x2="148.68" y2="526.27" xlink:href="#linear-gradient"/>
    <linearGradient id="linear-gradient-5" x1="67.78" y1="263.64" x2="170.81" y2="517.27" xlink:href="#linear-gradient"/>
    <linearGradient id="linear-gradient-6" x1="63.86" y1="265.24" x2="166.9" y2="518.87" xlink:href="#linear-gradient"/>
    <linearGradient id="linear-gradient-7" x1="95.81" y1="252.27" x2="198.83" y2="505.87" xlink:href="#linear-gradient"/>
    <linearGradient id="linear-gradient-8" x1="402.24" y1="127.77" x2="505.27" y2="381.4" xlink:href="#linear-gradient"/>
    <linearGradient id="linear-gradient-9" x1="403.09" y1="127.42" x2="506.13" y2="381.06" xlink:href="#linear-gradient"/>
    <linearGradient id="linear-gradient-10" x1="399.46" y1="128.88" x2="502.48" y2="382.49" xlink:href="#linear-gradient"/>
    <linearGradient id="linear-gradient-11" x1="130.55" y1="238.15" x2="233.58" y2="491.77" xlink:href="#linear-gradient"/>
    <linearGradient id="linear-gradient-12" x1="170.98" y1="221.69" x2="274.04" y2="475.37" xlink:href="#linear-gradient"/>
    <linearGradient id="linear-gradient-13" x1="414.59" y1="122.75" x2="517.61" y2="376.36" xlink:href="#linear-gradient"/>
    <linearGradient id="linear-gradient-14" x1="420.48" y1="120.35" x2="523.53" y2="374.02" xlink:href="#linear-gradient"/>
    <linearGradient id="linear-gradient-15" x1="415.95" y1="122.2" x2="518.99" y2="375.85" xlink:href="#linear-gradient"/>
    <linearGradient id="linear-gradient-16" x1="369.41" y1="141.11" x2="472.44" y2="394.74" xlink:href="#linear-gradient"/>
    <linearGradient id="linear-gradient-17" x1="298.4" y1="169.95" x2="401.44" y2="423.6" xlink:href="#linear-gradient"/>
    <linearGradient id="linear-gradient-18" x1="213.61" y1="204.43" x2="316.64" y2="458.02" xlink:href="#linear-gradient"/>
    <linearGradient id="linear-gradient-19" x1="257.75" y1="186.51" x2="360.76" y2="440.09" xlink:href="#linear-gradient"/>
    <linearGradient id="linear-gradient-20" x1="425.72" y1="118.23" x2="528.76" y2="371.86" xlink:href="#linear-gradient"/>
    <linearGradient id="linear-gradient-21" x1="444.82" y1="110.47" x2="547.87" y2="364.14" xlink:href="#linear-gradient"/>
    <linearGradient id="linear-gradient-22" x1="454.23" y1="106.64" x2="557.29" y2="360.33" xlink:href="#linear-gradient"/>
    <linearGradient id="linear-gradient-23" x1="54.36" y1="269.08" x2="157.38" y2="522.68" xlink:href="#linear-gradient"/>
    <linearGradient id="linear-gradient-24" x1="54.8" y1="268.92" x2="157.86" y2="522.6" xlink:href="#linear-gradient"/>
    <linearGradient id="linear-gradient-25" x1="29.24" y1="279.3" x2="132.28" y2="532.93" xlink:href="#linear-gradient"/>
    <linearGradient id="linear-gradient-26" x1="32.58" y1="277.94" x2="135.6" y2="531.53" xlink:href="#linear-gradient"/>
    <linearGradient id="linear-gradient-27" x1="20.45" y1="282.86" x2="123.52" y2="536.57" xlink:href="#linear-gradient"/>
    <linearGradient id="linear-gradient-28" x1="38.26" y1="275.63" x2="141.31" y2="529.29" xlink:href="#linear-gradient"/>
    <linearGradient id="linear-gradient-29" x1="20.82" y1="282.73" x2="123.85" y2="536.35" xlink:href="#linear-gradient"/>
    <linearGradient id="linear-gradient-30" x1="41.91" y1="274.16" x2="144.94" y2="527.78" xlink:href="#linear-gradient"/>
    <linearGradient id="linear-gradient-31" x1="69.81" y1="262.8" x2="172.86" y2="516.47" xlink:href="#linear-gradient"/>
    <linearGradient id="linear-gradient-32" x1="423.93" y1="118.96" x2="526.97" y2="372.61" xlink:href="#linear-gradient"/>
    <linearGradient id="linear-gradient-33" x1="425.95" y1="118.12" x2="528.96" y2="371.69" xlink:href="#linear-gradient"/>
    <linearGradient id="linear-gradient-34" x1="434.49" y1="114.66" x2="537.56" y2="368.37" xlink:href="#linear-gradient"/>
    <linearGradient id="linear-gradient-35" x1="442.68" y1="111.34" x2="545.7" y2="364.92" xlink:href="#linear-gradient"/>
    <linearGradient id="linear-gradient-36" x1="436.06" y1="114.03" x2="539.1" y2="367.67" xlink:href="#linear-gradient"/>
    <linearGradient id="linear-gradient-37" x1="449.02" y1="108.77" x2="552.05" y2="362.4" xlink:href="#linear-gradient"/>
    <linearGradient id="linear-gradient-38" x1="340.25" y1="152.87" x2="443.34" y2="406.64" xlink:href="#linear-gradient"/>
    <linearGradient id="linear-gradient-39" x1="301.29" y1="168.75" x2="404.35" y2="422.43" xlink:href="#linear-gradient"/>
    <linearGradient id="linear-gradient-40" x1="340.64" y1="152.72" x2="443.71" y2="406.45" xlink:href="#linear-gradient"/>
    <linearGradient id="linear-gradient-41" x1="101.08" y1="250.09" x2="204.13" y2="503.76" xlink:href="#linear-gradient"/>
    <linearGradient id="linear-gradient-42" x1="138.33" y1="234.97" x2="241.38" y2="488.62" xlink:href="#linear-gradient"/>
    <linearGradient id="linear-gradient-43" x1="178.54" y1="218.69" x2="281.56" y2="472.28" xlink:href="#linear-gradient"/>
    <linearGradient id="linear-gradient-44" x1="220.39" y1="201.69" x2="323.41" y2="455.28" xlink:href="#linear-gradient"/>
    <linearGradient id="linear-gradient-45" x1="262.63" y1="184.49" x2="365.67" y2="438.12" xlink:href="#linear-gradient"/>
    <linearGradient id="linear-gradient-46" x1="302.68" y1="168.3" x2="405.68" y2="421.86" xlink:href="#linear-gradient"/>
    <linearGradient id="linear-gradient-47" x1="399.08" y1="129.04" x2="502.13" y2="382.7" xlink:href="#linear-gradient"/>
    <linearGradient id="linear-gradient-48" x1="424.65" y1="118.67" x2="527.68" y2="372.3" xlink:href="#linear-gradient"/>
    <linearGradient id="linear-gradient-49" x1="373.96" y1="139.3" x2="476.97" y2="392.89" xlink:href="#linear-gradient"/>
    <linearGradient id="linear-gradient-50" x1="451.17" y1="108.34" x2="553.86" y2="361.14" xlink:href="#linear-gradient"/>
    <linearGradient id="linear-gradient-51" x1="59.9" y1="267.02" x2="162.87" y2="520.48" xlink:href="#linear-gradient"/>
    <linearGradient id="linear-gradient-52" x1="67.25" y1="263.85" x2="170.29" y2="517.5" xlink:href="#linear-gradient"/>
    <linearGradient id="linear-gradient-53" x1="111.45" y1="245.96" x2="214.47" y2="499.55" xlink:href="#linear-gradient"/>
    <linearGradient id="linear-gradient-54" x1="177.57" y1="218.64" x2="280.73" y2="472.59" xlink:href="#linear-gradient"/>
    <linearGradient id="linear-gradient-55" x1="347.15" y1="492.74" x2="347.15" y2="492.75" xlink:href="#linear-gradient"/>
    <linearGradient id="linear-gradient-56" x1="220.86" y1="177.27" x2="331.18" y2="448.81" xlink:href="#linear-gradient"/>
    <linearGradient id="linear-gradient-57" x1="241.56" y1="195.64" x2="343.82" y2="447.36" xlink:href="#linear-gradient"/>
    <linearGradient id="linear-gradient-58" x1="254.81" y1="238.77" x2="279.01" y2="298.35" gradientTransform="translate(624.41 288.14) rotate(141.36)" xlink:href="#linear-gradient"/>
    <linearGradient id="linear-gradient-59" x1="220.35" y1="254.8" x2="244.56" y2="314.39" gradientTransform="translate(624.41 288.14) rotate(141.36)" xlink:href="#linear-gradient"/>
    <linearGradient id="linear-gradient-60" x1="215.5" y1="256.76" x2="239.71" y2="316.36" gradientTransform="translate(624.41 288.14) rotate(141.36)" xlink:href="#linear-gradient"/>
    <linearGradient id="linear-gradient-61" x1="211.85" y1="258.25" x2="236.05" y2="317.83" gradientTransform="translate(624.41 288.14) rotate(141.36)" xlink:href="#linear-gradient"/>
    <linearGradient id="linear-gradient-62" x1="217.05" y1="256.13" x2="241.25" y2="315.71" gradientTransform="translate(624.41 288.14) rotate(141.36)" xlink:href="#linear-gradient"/>
    <linearGradient id="linear-gradient-63" x1="216.13" y1="256.51" x2="240.33" y2="316.09" gradientTransform="translate(624.41 288.14) rotate(141.36)" xlink:href="#linear-gradient"/>
    <linearGradient id="linear-gradient-64" x1="223.63" y1="253.46" x2="247.83" y2="313.04" gradientTransform="translate(624.41 288.14) rotate(141.36)" xlink:href="#linear-gradient"/>
    <linearGradient id="linear-gradient-65" x1="295.61" y1="224.22" x2="319.82" y2="283.8" gradientTransform="translate(624.41 288.14) rotate(141.36)" xlink:href="#linear-gradient"/>
    <linearGradient id="linear-gradient-66" x1="295.82" y1="224.14" x2="320.02" y2="283.72" gradientTransform="translate(624.41 288.14) rotate(141.36)" xlink:href="#linear-gradient"/>
    <linearGradient id="linear-gradient-67" x1="294.96" y1="224.48" x2="319.16" y2="284.05" gradientTransform="translate(624.41 288.14) rotate(141.36)" xlink:href="#linear-gradient"/>
    <linearGradient id="linear-gradient-68" x1="231.79" y1="250.15" x2="256" y2="309.72" gradientTransform="translate(624.41 288.14) rotate(141.36)" xlink:href="#linear-gradient"/>
    <linearGradient id="linear-gradient-69" x1="241.29" y1="246.28" x2="265.5" y2="305.87" gradientTransform="translate(624.41 288.14) rotate(141.36)" xlink:href="#linear-gradient"/>
    <linearGradient id="linear-gradient-70" x1="298.52" y1="223.04" x2="322.72" y2="282.61" gradientTransform="translate(624.41 288.14) rotate(141.36)" xlink:href="#linear-gradient"/>
    <linearGradient id="linear-gradient-71" x1="299.9" y1="222.47" x2="324.11" y2="282.06" gradientTransform="translate(624.41 288.14) rotate(141.36)" xlink:href="#linear-gradient"/>
    <linearGradient id="linear-gradient-72" x1="298.83" y1="222.91" x2="323.04" y2="282.49" gradientTransform="translate(624.41 288.14) rotate(141.36)" xlink:href="#linear-gradient"/>
    <linearGradient id="linear-gradient-73" x1="287.9" y1="227.35" x2="312.11" y2="286.93" gradientTransform="translate(624.41 288.14) rotate(141.36)" xlink:href="#linear-gradient"/>
    <linearGradient id="linear-gradient-74" x1="271.22" y1="234.13" x2="295.43" y2="293.71" gradientTransform="translate(624.41 288.14) rotate(141.36)" xlink:href="#linear-gradient"/>
    <linearGradient id="linear-gradient-75" x1="251.31" y1="242.22" x2="275.51" y2="301.8" gradientTransform="translate(624.41 288.14) rotate(141.36)" xlink:href="#linear-gradient"/>
    <linearGradient id="linear-gradient-76" x1="261.67" y1="238.02" x2="285.87" y2="297.58" gradientTransform="translate(624.41 288.14) rotate(141.36)" xlink:href="#linear-gradient"/>
    <linearGradient id="linear-gradient-77" x1="301.13" y1="221.98" x2="325.34" y2="281.56" gradientTransform="translate(624.41 288.14) rotate(141.36)" xlink:href="#linear-gradient"/>
    <linearGradient id="linear-gradient-78" x1="305.62" y1="220.15" x2="329.82" y2="279.74" gradientTransform="translate(624.41 288.14) rotate(141.36)" xlink:href="#linear-gradient"/>
    <linearGradient id="linear-gradient-79" x1="307.83" y1="219.25" x2="332.04" y2="278.85" gradientTransform="translate(624.41 288.14) rotate(141.36)" xlink:href="#linear-gradient"/>
    <linearGradient id="linear-gradient-80" x1="213.89" y1="257.41" x2="238.09" y2="316.99" gradientTransform="translate(624.41 288.14) rotate(141.36)" xlink:href="#linear-gradient"/>
    <linearGradient id="linear-gradient-81" x1="214" y1="257.37" x2="238.21" y2="316.97" gradientTransform="translate(624.41 288.14) rotate(141.36)" xlink:href="#linear-gradient"/>
    <linearGradient id="linear-gradient-82" x1="207.99" y1="259.81" x2="232.2" y2="319.39" gradientTransform="translate(624.41 288.14) rotate(141.36)" xlink:href="#linear-gradient"/>
    <linearGradient id="linear-gradient-83" x1="208.78" y1="259.49" x2="232.98" y2="319.06" gradientTransform="translate(624.41 288.14) rotate(141.36)" xlink:href="#linear-gradient"/>
    <linearGradient id="linear-gradient-84" x1="205.93" y1="260.65" x2="230.14" y2="320.25" gradientTransform="translate(624.41 288.14) rotate(141.36)" xlink:href="#linear-gradient"/>
    <linearGradient id="linear-gradient-85" x1="210.11" y1="258.95" x2="234.32" y2="318.54" gradientTransform="translate(624.41 288.14) rotate(141.36)" xlink:href="#linear-gradient"/>
    <linearGradient id="linear-gradient-86" x1="206.02" y1="260.62" x2="230.22" y2="320.2" gradientTransform="translate(624.41 288.14) rotate(141.36)" xlink:href="#linear-gradient"/>
    <linearGradient id="linear-gradient-87" x1="210.97" y1="258.6" x2="235.17" y2="318.18" gradientTransform="translate(624.41 288.14) rotate(141.36)" xlink:href="#linear-gradient"/>
    <linearGradient id="linear-gradient-88" x1="217.52" y1="255.94" x2="241.73" y2="315.53" gradientTransform="translate(624.41 288.14) rotate(141.36)" xlink:href="#linear-gradient"/>
    <linearGradient id="linear-gradient-89" x1="300.71" y1="222.15" x2="324.92" y2="281.73" gradientTransform="translate(624.41 288.14) rotate(141.36)" xlink:href="#linear-gradient"/>
    <linearGradient id="linear-gradient-90" x1="301.19" y1="221.95" x2="325.38" y2="281.51" gradientTransform="translate(624.41 288.14) rotate(141.36)" xlink:href="#linear-gradient"/>
    <linearGradient id="linear-gradient-91" x1="303.19" y1="221.14" x2="327.4" y2="280.74" gradientTransform="translate(624.41 288.14) rotate(141.36)" xlink:href="#linear-gradient"/>
    <linearGradient id="linear-gradient-92" x1="305.12" y1="220.36" x2="329.31" y2="279.93" gradientTransform="translate(624.41 288.14) rotate(141.36)" xlink:href="#linear-gradient"/>
    <linearGradient id="linear-gradient-93" x1="303.56" y1="220.99" x2="327.76" y2="280.57" gradientTransform="translate(624.41 288.14) rotate(141.36)" xlink:href="#linear-gradient"/>
    <linearGradient id="linear-gradient-94" x1="306.6" y1="219.75" x2="330.81" y2="279.33" gradientTransform="translate(624.41 288.14) rotate(141.36)" xlink:href="#linear-gradient"/>
    <linearGradient id="linear-gradient-95" x1="281.05" y1="230.11" x2="305.27" y2="289.73" gradientTransform="translate(624.41 288.14) rotate(141.36)" xlink:href="#linear-gradient"/>
    <linearGradient id="linear-gradient-96" x1="271.9" y1="233.84" x2="296.11" y2="293.44" gradientTransform="translate(624.41 288.14) rotate(141.36)" xlink:href="#linear-gradient"/>
    <linearGradient id="linear-gradient-97" x1="281.14" y1="230.08" x2="305.36" y2="289.68" gradientTransform="translate(624.41 288.14) rotate(141.36)" xlink:href="#linear-gradient"/>
    <linearGradient id="linear-gradient-98" x1="224.87" y1="252.95" x2="249.08" y2="312.54" gradientTransform="translate(624.41 288.14) rotate(141.36)" xlink:href="#linear-gradient"/>
    <linearGradient id="linear-gradient-99" x1="233.62" y1="249.4" x2="257.83" y2="308.98" gradientTransform="translate(624.41 288.14) rotate(141.36)" xlink:href="#linear-gradient"/>
    <linearGradient id="linear-gradient-100" x1="243.07" y1="245.58" x2="267.27" y2="305.15" gradientTransform="translate(624.41 288.14) rotate(141.36)" xlink:href="#linear-gradient"/>
    <linearGradient id="linear-gradient-101" x1="252.9" y1="241.58" x2="277.1" y2="301.15" gradientTransform="translate(624.41 288.14) rotate(141.36)" xlink:href="#linear-gradient"/>
    <linearGradient id="linear-gradient-102" x1="262.82" y1="237.54" x2="287.02" y2="297.12" gradientTransform="translate(624.41 288.14) rotate(141.36)" xlink:href="#linear-gradient"/>
    <linearGradient id="linear-gradient-103" x1="272.23" y1="233.74" x2="296.42" y2="293.3" gradientTransform="translate(624.41 288.14) rotate(141.36)" xlink:href="#linear-gradient"/>
    <linearGradient id="linear-gradient-104" x1="294.87" y1="224.51" x2="319.08" y2="284.1" gradientTransform="translate(624.41 288.14) rotate(141.36)" xlink:href="#linear-gradient"/>
    <linearGradient id="linear-gradient-105" x1="300.88" y1="222.08" x2="325.08" y2="281.66" gradientTransform="translate(624.41 288.14) rotate(141.36)" xlink:href="#linear-gradient"/>
    <linearGradient id="linear-gradient-106" x1="288.97" y1="226.92" x2="313.17" y2="286.5" gradientTransform="translate(624.41 288.14) rotate(141.36)" xlink:href="#linear-gradient"/>
    <linearGradient id="linear-gradient-107" x1="307.11" y1="219.65" x2="331.23" y2="279.04" gradientTransform="translate(624.41 288.14) rotate(141.36)" xlink:href="#linear-gradient"/>
    <linearGradient id="linear-gradient-108" x1="215.2" y1="256.93" x2="239.38" y2="316.47" gradientTransform="translate(624.41 288.14) rotate(141.36)" xlink:href="#linear-gradient"/>
    <linearGradient id="linear-gradient-109" x1="216.92" y1="256.18" x2="241.13" y2="315.77" gradientTransform="translate(624.41 288.14) rotate(141.36)" xlink:href="#linear-gradient"/>
    <linearGradient id="linear-gradient-110" x1="227.31" y1="251.98" x2="251.51" y2="311.55" gradientTransform="translate(624.41 288.14) rotate(141.36)" xlink:href="#linear-gradient"/>
    <linearGradient id="linear-gradient-111" x1="242.84" y1="245.56" x2="267.07" y2="305.22" gradientTransform="translate(624.41 288.14) rotate(141.36)" xlink:href="#linear-gradient"/>
    <linearGradient id="linear-gradient-112" x1="282.67" y1="309.95" x2="282.67" y2="309.95" gradientTransform="translate(624.41 288.14) rotate(141.36)" xlink:href="#linear-gradient"/>
    <linearGradient id="linear-gradient-113" x1="253.01" y1="235.84" x2="278.92" y2="299.63" gradientTransform="translate(624.41 288.14) rotate(141.36)" xlink:href="#linear-gradient"/>
    <linearGradient id="linear-gradient-114" x1="223.62" y1="155.43" x2="277.24" y2="287.41" gradientTransform="translate(624.41 288.14) rotate(141.36)" xlink:href="#linear-gradient"/>
  </defs>
  <circle class="cls-12" cx="259.15" cy="258.04" r="247.37"/>
  <g>
    <path class="cls-10" d="M471.63,240.4c-1.45,1.11-3.14,2.18-5.09,3.41-7.01,4.43-12.97,10.5-15.91,18.38-3.55,9.54.9,18.17.01,28.07-.99,11-12.32,18.18-16.48,27.84-4.9,11.37,4.59,25.26-3.08,35.95-2.78,3.87-8.68,4.91-12.31,7.8-5.34,4.26-6.62,8.96-8.83,15.06-6.08,16.71-21.34,31-40.06,26.9-15.04-3.29-25.28,12.42-40.81,8.75-6.84-1.62-9.74-3.49-17.29-1.96-6.69,1.35-10.94,4.17-17.97,2.62-7.13-1.59-7.82-4.74-16.23-2.81-16.61,3.79-23.19,7.21-40.46,1.44-14.67-4.9-27.54,6.51-42.15.6-5.77-2.33-9.44-6.19-16.67-5.71-7.74.53-13.59,5.83-21.54,3.75-6.25-1.65-10.96-7.74-18.23-8.32-5.41-.42-10.42,2.14-15.82,1.61-6.11-.6-9.06-5.28-14.5-7.08-6.13-2.02-7.68.13-12.74,1.25-5.87,1.29-8.24-3.09-11.87-7.46-5.86-7.05-13.41-3.19-20.75-5.21-13.35-3.69-17.21-17.61-19.95-29.56-1.52-6.58-1.9-13.44-3.99-19.89-2.33-7.17-7.49-10.35-11.15-16.46-7.4-12.34-3.7-27.63-5.98-41.13-1.37-8.11-5.04-15.17-12-19.85-2.55,11.27,2.53,28.04,4.54,39.55,2.43,13.91,5.54,27.71,10.01,41.12,31.93,95.78,129.58,159.7,229.69,159.7,135.77,0,245.84-110.07,245.84-245.84,0-24.86-4.14-50.12-10.92-73.78-1.75-6.08-5.01-15.72-9.59-19.48-2.17,5.82,1.56,11.98.6,17.86-.86,5.3-5.14,9.09-6.16,14.34-2.39,12.34,6.59,25,4.28,37.51-1.05,5.67-3.1,8.47-6.43,11.03Z"/>
    <path class="cls-9" d="M9.77,257.04c.01-137.17,111.2-248.36,248.37-248.37h0c137.19.01,248.37,111.2,248.38,248.37h0c-.01,137.17-111.19,248.35-248.38,248.36h0c-137.17-.01-248.35-111.2-248.37-248.36h0ZM84.88,83.78C41.6,127.09,14.84,186.85,14.84,252.91h0c0,66.07,26.77,125.81,70.05,169.12h0c43.3,43.29,103.06,70.05,169.12,70.05h0c66.07,0,125.82-26.76,169.13-70.05h0c43.29-43.3,70.04-103.05,70.04-169.12h0c0-66.07-26.75-125.82-70.04-169.13h0C379.83,40.49,320.08,13.73,254.01,13.73h0c-66.06,0-125.82,26.76-169.12,70.05h0Z"/>
    <g>
      <g>
        <path class="cls-8" d="M38.93,174.29c2.36-6.61,6.83-15.22,10.45-20.01,1.27-3.47,2.09-6.59,1.75-8.3l-.45-.56c-3.91-1.56-18.31,26.3-16.39,31.71.53,1.48,2.29.29,4.65-2.85Z"/>
        <path class="cls-7" d="M38.41,239.55c-3.15-11.76,4.67-32.83,12.31-29.96l.55.27c-.59-2.18-1.52-4.03-2.99-5.21l-.74-.38c-8.4-3.14-17.02,22.55-11.13,33.11.58,1.04,1.26,1.69,2,2.16Z"/>
        <path class="cls-6" d="M50.18,263.12c.6.05,1.36.33,1.92.54.94.55,1.78,1.25,2.52,2.06-1.24-3.12-3.07-5.81-5.71-7.36-.55-.21-1.32-.5-1.91-.55-9.52-.84-12.82,22.7-4.77,34.03.33.46.66.88,1.01,1.26-5.06-12.09-1.55-30.73,6.94-29.98Z"/>
        <path class="cls-3" d="M81.22,275l1.26.29c2.19.85,3.99,2.23,5.47,3.93-1.72-4.09-4.48-7.63-8.66-9.24l-1.25-.3c-11.46-1.77-16.83,19.39-8.1,31.88.32.46.66.86.99,1.26-5.36-12.51,0-29.42,10.29-27.83Z"/>
        <path class="cls-4" d="M94.08,328.74c.81-.02,1.89.17,2.69.31,3.69,1.18,6.6,3.54,8.87,6.39-2.35-5.12-6.26-9.84-12.06-11.69-.81-.15-1.87-.33-2.69-.31-10.88.23-12.74,17.33-3.94,28.71-4.86-10.73-2.15-23.19,7.13-23.4Z"/>
        <path class="cls-2" d="M136.06,337.24c.48.03,1.1.12,1.58.17,4.94,1.1,8.61,3.87,11.25,7.24-2.37-5.6-7.04-10.92-14.44-12.56-.48-.05-1.1-.14-1.57-.16-12.8-.58-17.03,16.43-7.87,27.96-4.57-10.8.13-23.15,11.06-22.66Z"/>
        <path class="cls-1" d="M359.36,52.71c.2.9,3.52,3.27,7.91,5.97,3.5,1.14,8.4,3.26,13.04,5.78,3.38,1.83,6.32,3.7,8.63,5.37.75.24,1.36.37,1.66.3.99-.24.03-1.63-2.24-3.56-7.28-3.05-22.15-11.4-26.21-13.77-1.5-.37-2.56-.46-2.79-.1Z"/>
        <path class="cls-5" d="M357.81,46.66l.05.14c.37.13.75.26,1.2.42,5.18,2.07,10.25,4.38,15.19,6.9,4.8,2.5,9.6,5.26,10.47,6.02-.65-.1-9.46-4.2-17.33-7.9,8.72,4.78,20.44,10.9,21.74,10.07-.65-1.53-8.09-6.33-15.64-10.07-6.42-3.18-14.26-6.18-15.68-5.59Z"/>
        <path class="cls-27" d="M351.78,41.04c.21.12,28.58,13.63,29.75,13.8-.87-.76-5.66-3.52-10.47-6.02-4.95-2.52-10.02-4.83-15.19-6.9-2.25-.82-3.7-1.23-4.33-1.23v.19s.24.18.24.18Z"/>
        <path class="cls-28" d="M178.96,342.89c.52,0,1.2.06,1.73.08,5.68.87,9.75,3.65,12.57,7.11-2.34-5.72-7.35-11.14-15.76-12.41-.53-.02-1.21-.09-1.72-.08-13.49.13-18.94,16.71-9.72,27.93-4.23-10.48,1.43-22.5,12.9-22.62Z"/>
        <path class="cls-29" d="M229.53,346.25c6.13.55,10.44,3.21,13.34,6.6-2.25-5.74-7.43-11.11-16.52-11.91-16.48.22-22.05,17.52-13.11,28.21.06.08.14.13.2.21-4.03-10.34,2.05-22.92,16.09-23.11Z"/>
        <path class="cls-30" d="M395.23,93.57l.29-.33c2.92-1.53,11.87,4.09,18.06,10.11,1.8,1.75,3.35,3.51,4.63,5.18-1.15-2.85-3.89-6.68-7.82-10.48-6.2-6.02-15.14-11.65-18.06-10.11l-.29.33c-.76,1.38.71,4.3,3.28,7.66-.33-.98-.4-1.8-.09-2.35Z"/>
        <path class="cls-32" d="M418.55,126.47c-3.47,2.7-.29,11.11,4.67,18.34-2.9-5.62-4.11-10.98-1.49-13.03,4.56-1.9,12.13,5.31,16.41,11.33-.67-1.37-1.47-2.78-2.42-4.22-4.08-6.19-12.34-14.43-17.17-12.41Z"/>
        <path class="cls-43" d="M438.42,176.31c4.16-1.43,8.52,2,11.84,6.56-3.26-6.68-9.35-13.81-15.02-11.87-6.69,3.96-3.34,18.55,2.98,27.17-4.04-8.36-5.25-18.63.2-21.85Z"/>
        <path class="cls-44" d="M411.63,233.01c5.09-.88,9.13,1.41,12,4.91-2.6-6.09-7.79-11.5-15.19-10.22-11.96,3.79-12.8,21.94-5.1,31.18-3.94-9.64-1.66-22.72,8.29-25.88Z"/>
        <path class="cls-45" d="M355.9,292.17c6.05-.39,10.61,1.71,13.64,5.05-2.36-6.19-7.97-10.94-16.84-10.35-16.13,2.77-21.19,21.65-12.32,31.88.06.06.1.09.15.15-4-10.43,1.67-24.36,15.37-26.72Z"/>
        <path class="cls-46" d="M279.79,346.69c6.24.19,10.56,2.58,13.44,5.83-2.1-5.69-7.27-10.85-16.63-11.14-15.92,1.12-22.49,17.2-15.1,27.68.36.51.77.94,1.16,1.39-3.66-10.15,3.08-22.77,17.12-23.76Z"/>
        <path class="cls-31" d="M330.51,344.12c6.01-.18,10.25,1.8,13.01,4.74-1.95-5.53-6.99-10.32-16.2-10.04-16.74,2.21-21.91,19.46-15.55,28.6.43.61.92,1.14,1.39,1.66-3.13-9.45,2.63-23.02,17.35-24.96Z"/>
      </g>
      <path class="cls-34" d="M421.16,84.02c-.49-.51-1.01-.95-1.53-1.41-4.79-4.18-11.47-9.41-16.45-13.39-4.13-3.09-8.57-6.17-9.17-6.06l.35.4c.2.17,25.8,19.97,26.8,20.46Z"/>
      <path class="cls-33" d="M455.74,122.79c-.2-.43-.55-.98-2.15-3.14l-3.24-4.27-11.59-13.81c-2.29-2.54-5.14-5.58-5.75-5.6l.25.5c1.73,2.56,21.64,26.17,22.47,26.31Z"/>
      <path class="cls-35" d="M481.14,167.9c0-1.27-2.98-7.49-4.27-10.11l-4.66-9.03-.81-1.47c-3.17-5.61-6.24-10.83-7.17-10.98l.07.56c1.51,4.69,15.26,30.63,16.84,31.02Z"/>
      <g>
        <path class="cls-36" d="M29.79,178.46l-.14-.65c-.84.66-2.72,5.89-4.16,10.16l-4.56,15.34c-2.26,8.69-1.93,9.29-1.77,9.54.82-.74,2.82-6.55,4.36-11.29,1.58-4.87,5.77-18.5,6.28-23.11Z"/>
        <path class="cls-52" d="M30.81,201.68l.76.61c1.12,2.08,1.1,6.14.51,10.57,2.11-7.26,3.83-17.43,1.79-21.21l-.77-.61c-3.71-1.09-9.08,13.39-10.53,24.37,2.32-7.81,5.68-14.48,8.24-13.73Z"/>
        <path class="cls-38" d="M17.62,231.04l-.38-.64c-2.02-1.15-4.08,17.72-3.98,29.21.68-9.59,2.14-18.91,3.58-18.09l.37.65c.44,1.63.61,4.36.64,7.47.49-6.91.7-15.14-.23-18.6Z"/>
        <path class="cls-53" d="M26.71,256.83l1.16.62c2.02,2.15,3.18,6.27,3.73,10.81.72-7.74.03-19.17-3.88-23.33l-1.15-.61c-4.8-.98-7.33,15.3-5.91,26.91.71-8.11,2.88-15.04,6.05-14.39Z"/>
        <path class="cls-51" d="M32.28,310.84c.79-.09,1.54.3,2.15.62,3.58,2.73,6.19,8.55,7.79,14.39-.01-.38,0-.71-.02-1.1-.46-7.58-3.76-20.25-9.6-24.69-.61-.33-1.36-.72-2.15-.63-4.57.55-4.58,11.97-1.84,22.05-.23-5.77.83-10.3,3.65-10.64Z"/>
        <path class="cls-37" d="M65.33,330.2c2.62,2.62,4.53,6.61,5.67,10.75.19-.89.33-1.82.4-2.77.48-6.54-2.04-15.74-6.78-20.5-3.42-3.42-9.93-4.51-13.04-.33-3,4.03-2.69,10.01-.88,15.63.36-1.11.88-2.17,1.58-3.11,3.11-4.17,9.62-3.1,13.04.34Z"/>
        <path class="cls-54" d="M49.92,364.7c1.11-.4,2.12.02,3.19.44,5.82,3.26,10.56,11.47,13,18.09.37-1.78.23-4.26-.53-7.34-1.65-6.8-7.19-18.17-14.29-22.15-1.06-.43-2.07-.84-3.19-.44-3.2,1.13-2.69,7.38-.19,14.17.3-1.39.93-2.39,2.01-2.77Z"/>
        <path class="cls-42" d="M79.69,376.25c1.22-.16,2.41.13,3.38.36,6.83,2.53,11.79,9.25,14.37,15.31.32-1.56.38-3.39-.01-5.59-1.19-6.73-6.99-17.74-16.18-21.12-.96-.24-2.15-.53-3.38-.37-5.89.75-6.36,8.44-3.01,16.27.56-2.65,2.09-4.52,4.83-4.87Z"/>
        <path class="cls-40" d="M115.98,385.7c1.51-.24,2.93-.04,4.07.14,7.59,1.93,12.67,7.7,15.3,13.28.32-1.34.43-2.86.26-4.58-.68-6.68-6.52-17.34-17.38-20.1-1.15-.17-2.56-.38-4.07-.13-7.37,1.18-8.73,9.69-4.83,17.81.76-3.34,2.93-5.82,6.65-6.41Z"/>
        <path class="cls-39" d="M416.66,94.27c3.33,2.87,6.71,6.17,9.38,9.06,1.56-1.31-3.28-8.04-10.43-14.22-6.57-5.68-15.03-10.79-16.5-9.1-.17.86.8,2.51,2.41,4.51.86-.97,7.86,3.47,15.15,9.75Z"/>
        <path class="cls-41" d="M413.1,84.27c-3.4-3.03-6-5.64-6.5-6.8-.09-1.58,6.24,2.01,13.07,7.33-1.79-1.64-3.71-3.31-5.62-4.84-7.23-5.78-14.25-9.82-14.15-8.15.82,1.85,6.95,7.4,13.21,12.46Z"/>
        <path class="cls-48" d="M438.34,125.22c1.59-1.24,4.86.68,8.23,3.68-.13-.17-.23-.34-.36-.51-4.63-6.21-12.55-13.65-15.34-11.48-2.56,4.19,7.66,18.95,15.04,25.57-5.14-6.74-9.29-14.42-7.57-17.26Z"/>
        <path class="cls-47" d="M440.55,112.79c.68-2.01,6.46,3.07,11.69,9.22-1.09-1.51-2.23-3.05-3.48-4.59-5.49-6.76-12.14-12.78-12.86-10.62.07,2.81,5.1,10.05,10.35,16.43-3.22-4.43-5.65-8.5-5.71-10.44Z"/>
        <path class="cls-49" d="M456.93,172.22c3.71-2.2,9.91,4.92,13.69,12.9-.37-3.31-1.48-7.32-3.39-11.46-3.75-8.16-10.14-15.59-13.93-13.35-2.97,3.08-1.18,11.36,2.25,18.83-.34-3.01.01-5.51,1.37-6.92Z"/>
        <path class="cls-55" d="M465.75,157.89c1.71-2.46,7.16,4.62,11.22,12.6,1.18,2.29,2.17,4.53,3,6.66-.45-3.66-2.45-9.6-5.59-15.74-4.07-7.97-9.52-15.05-11.22-12.6-.67,2.08.5,6.52,2.47,11.42-.09-.93-.08-1.75.11-2.34Z"/>
        <path class="cls-50" d="M400.23,291.14c7.32-1.01,11.72,2.9,14,7.8.06-.62.14-1.25.15-1.9.16-7.55-4.03-18.93-15.97-17.3-12.73,3.32-17.15,18.9-12.27,29.06.85-7.84,5.64-15.45,14.09-17.66Z"/>
        <path class="cls-56" d="M378.22,344.52c6.74-.66,10.95,2.07,13.22,5.96.02-.11.04-.21.07-.33,1.26-7.81-2.6-18.27-15.11-17.03-14.66,3.03-21.52,19.58-15.56,29.23,1.44-7.92,7.7-15.83,17.38-17.83Z"/>
        <path class="cls-18" d="M421,336.18c5.08-.9,8.34,1.1,10.23,4.29,1.03-7.8-1.93-17.5-12.04-15.69-12.7,3.92-18.65,22.07-13.14,31.02,1.16-8.26,6.57-17.04,14.95-19.62Z"/>
        <path class="cls-19" d="M156.88,392.25c.94-.08,2.2.02,3.14.09,7.86,1.4,12.96,6.29,15.63,11.37.29-1.12.45-2.32.42-3.65-.17-6.64-5.83-16.97-17.88-19.12-.94-.08-2.19-.17-3.13-.08-9.7.77-12.83,10.43-8.01,19.31,1.09-4.28,4.42-7.48,9.83-7.91Z"/>
        <path class="cls-20" d="M205.09,398.43c8.14.91,13.23,5.24,15.79,9.99.72-1.46,1.19-3.1,1.29-4.94.38-6.66-4.89-16.67-17.8-18.11-13.58-.25-18.44,11.18-13.32,20.47,2.11-4.37,6.82-7.53,14.03-7.41Z"/>
        <path class="cls-17" d="M253.13,401.27c7.85.4,12.65,3.97,15.13,8.18.9-1.56,1.57-3.31,1.84-5.27.92-6.68-3.78-16.41-17.12-17.09-14.44.56-20.49,12.99-14.89,22.21,2.59-4.41,7.72-7.75,15.04-8.03Z"/>
        <path class="cls-25" d="M302.6,400.72c7.07-.06,11.45,2.61,13.84,6.1.83-1.45,1.48-3.02,1.86-4.74,1.44-6.74-2.51-16.22-15.84-16.11-15.73,1.53-21.23,15.28-16.49,23.44.17.29.39.53.58.8,2.71-4.76,8.04-8.71,16.06-9.49Z"/>
        <path class="cls-23" d="M351.9,396.04c6.03-.43,9.86,1.41,12.07,4.14.5-1,.94-2.06,1.25-3.18,1.92-6.85-1.17-16.08-14.03-15.14-15.25,2.5-21.62,16.61-17.72,24.49.36.74.79,1.4,1.27,2,2.66-5.66,8.47-10.87,17.17-12.3Z"/>
        <path class="cls-26" d="M396.94,389.57c4.19-.6,7.01.36,8.79,2.15.36-.77.67-1.57.94-2.4,2.28-6.98.53-16.08-10.43-14.49-13.09,3.27-21.2,18.44-17.05,26.65.4.8.91,1.46,1.48,2.04,2.84-6.19,8.72-12.05,16.27-13.95Z"/>
        <path class="cls-24" d="M440.32,230.17c6.39-1.74,11.26,4.32,13.71,10.79.09-2.07-.02-4.28-.46-6.6-1.44-7.79-7.09-17.77-15.08-15.6-7.53,3.45-8.46,15.72-5.11,25.01.19-6.03,2.3-11.49,6.93-13.61Z"/>
        <path class="cls-22" d="M464.79,219.07c5.05-2.25,9.61,5.01,11.87,12.02,0-2.64-.32-5.56-1.04-8.6-1.8-7.7-6.93-17.38-12.64-14.83-4.9,3.56-4.79,14.22-2.1,22.97-.03-5.06,1.1-9.52,3.92-11.57Z"/>
        <path class="cls-21" d="M435.6,282.52c5.81-1.28,9.64,2.29,11.73,7.11.05-.65.09-1.29.09-1.96-.04-8.12-4.31-18.62-13.63-16.55-10.4,3.88-13.65,19.78-9.31,29.73.5-7.91,4.25-15.76,11.13-18.33Z"/>
      </g>
      <path class="cls-64" d="M498.33,224.48l-.09-.48c.03.23.09.49.11.73,0-.08-.02-.17-.02-.25Z"/>
      <path class="cls-65" d="M142.79,481.47l.1.06c3.1,1.56,6.75,3.32,10.43,5.04-2.32-1.12-5.37-2.61-9.65-4.69l-.88-.4Z"/>
      <path class="cls-66" d="M163.2,491.12l.94.39c-3.25-1.46-7.06-3.18-10.82-4.95,5.96,2.89,6.84,3.26,9.88,4.55Z"/>
      <path class="cls-60" d="M211.09,505.47l1.02.25c2.8.51,6.54,1.11,9.35,1.56l2.05.29c-3.66-.52-7.27-1.33-10.91-1.95-1.39-.21-1.43-.19-1.51-.15Z"/>
      <path class="cls-61" d="M288.05,507.94l1.74-.22c3.36-.46,7.82-1.24,11.18-1.8l.29-.12c-.28-.02-.71.04-1.72.19-3.83.61-7.64,1.44-11.5,1.95Z"/>
      <g>
        <g>
          <path class="cls-16" d="M488.46,209.63c-.87-3.2-2.16-6.71-3.62-9.5,3.06,11.6,2.29,21.92-1.57,20.22-1.24-.54-2.56-2.32-3.82-4.78,1.99,7.2,4.99,13.71,7.57,14.85,3.94,1.72,4.69-8.96,1.44-20.78Z"/>
          <path class="cls-16" d="M470.82,265.9c.46,14.24-6.85,25.31-13.25,20.07-.39-.32-.75-.72-1.11-1.14.68,4.87,2.32,9.12,4.88,11.21,6.4,5.24,13.7-5.83,13.25-20.07-.16-4.9-1.51-10.57-4.1-13.76.19,1.24.3,2.49.33,3.69Z"/>
          <path class="cls-16" d="M456.92,315.88c.04,1.7-.08,3.43-.34,5.06-2.17,13.52-11.99,23.25-17.83,18.93.03,3.34.71,6.32,2.14,8.41,5.42,7.93,17.05-2.4,19.46-17.27.91-5.73.16-12.59-3.42-15.12Z"/>
          <path class="cls-16" d="M435.42,366.29c-.22,1.36-.58,2.75-1.04,4.05-3.95,11.26-13.92,19.21-19.63,17.38-.44,2.72-.29,5.19.58,7.07,3.86,8.4,17.92-.47,22.81-14.37,2.02-5.74,2.07-12.74-2.72-14.13Z"/>
          <path class="cls-16" d="M91.75,414.52c-.01,2.61-1.58,3.64-4.55,2.51-5.36-2.07-11.52-8.75-15.38-15.08-.25,6.47,10.49,21.81,19.14,25.14,4.65,1.78,5.92-1.73,3.03-8.38-.54-1.25-1.32-2.69-2.24-4.19Z"/>
          <path class="cls-16" d="M122.97,421.28c-.02,4.96-4.22,6.62-10.61,3.33-4.85-2.51-9.02-6.59-11.84-10.77-.16,6.07,6.56,16.17,15.6,20.83,7.89,4.08,12.56.66,9.97-7.31-.57-1.77-1.67-3.9-3.12-6.08Z"/>
          <path class="cls-16" d="M163.36,433.87c-.42-2.18-1.64-4.84-3.56-7.43-.25,7.3-8.54,9.21-17.68,3.26-2.84-1.86-5.15-4.06-6.9-6.36-.23,5.01,3.57,11.82,10.65,16.43,10.16,6.62,19.31,3.53,17.48-5.89Z"/>
          <path class="cls-16" d="M156.54,457.47c-1.02,1.72-3.73,2.13-7.75.74-5.21-1.79-10.14-5.4-13.52-9.11-2.96,4.26,6.63,15.52,17.27,19.18,6.87,2.37,10.04-.36,7.2-6.23-.66-1.35-1.77-2.94-3.2-4.58Z"/>
          <path class="cls-16" d="M174.11,432.11c-.74-.67-1.38-1.36-1.97-2.06-.36,3.78,1.46,8.28,5.72,12.11,10.1,9.1,24.78,6.54,24.15-4.22-.15-2.52-1.45-5.64-3.81-8.48-.85,9.39-14.51,11.25-24.09,2.64Z"/>
          <path class="cls-16" d="M245.27,439.95c.26-2.92-.95-6.56-3.85-9.54-1.52,11.16-18.4,13.6-27.13,4.33-.39,2.87.46,6,2.65,8.83,8.45,10.91,27.26,8.49,28.34-3.62Z"/>
          <path class="cls-16" d="M289.55,439.42c.77-3.33-.26-7.48-3.72-10.41-.02.12-.01.24-.05.34-2.6,11.18-19.02,15.05-27.3,7.79-.44,2.65,0,5.34,1.5,7.57,7.08,10.52,26.69,7,29.56-5.3Z"/>
          <path class="cls-16" d="M333.44,436.23c1.4-3.82.69-8.54-3.47-11.18-.09.38-.15.75-.28,1.11-3.84,10.47-19.07,15.45-26.7,10.48-.56,2.4-.44,4.76.6,6.7,3.27,6.14,12.21,6.63,19.62,3.21.12-.06.25-.1.37-.16,4.39-2.13,8.2-5.63,9.86-10.16Z"/>
          <path class="cls-16" d="M371.77,418.42c-.19.64-.4,1.27-.7,1.88-4.84,10.16-17.72,15.96-24.59,13.02-.66,2.19-.76,4.28-.14,5.96,3.5,9.81,22.4,3.88,28.49-8.92,2.14-4.49,2-10.04-3.06-11.95Z"/>
          <path class="cls-16" d="M406.93,410.07c-.32.77-.68,1.54-1.09,2.29-4.83,8.78-13.93,14.91-19.58,14.82-.97,2.49-1.39,4.79-.96,6.51,2.03,8.33,17.47,1.17,24.3-11.27,2.98-5.43,3.71-12.17-2.67-12.35Z"/>
          <path class="cls-16" d="M188.3,460.4c-1.63,4.12-8.84,4.57-16.49.09-2.23-1.3-4.06-2.8-5.56-4.33-1.73,3.74,1.89,10.03,9.32,14.4,9.67,5.67,18.65,3.46,16.55-4.08-.5-1.79-1.82-3.99-3.83-6.08Z"/>
          <path class="cls-16" d="M224.85,461.7c-2.24,6.76-14.68,7.21-22.56.04-1.08,2.73-.18,6.23,3.18,9.54,8.7,8.61,23.88,7.27,23.52-2.08-.08-2.25-1.43-5.09-4.14-7.5Z"/>
          <path class="cls-16" d="M263.13,461.1c-2.91,7.45-15.5,9.37-22.63,4.14-.91,2.29-.65,4.85.93,7.17,6.17,9.02,23.83,7.22,25.9-2.63.58-2.76-.62-6.27-4.2-8.68Z"/>
          <path class="cls-16" d="M301.79,458.65c-3.83,7.33-15.54,10.48-22.2,7.43-.99,2.17-1.13,4.39-.32,6.19,3.84,8.55,22.25,5.66,26.61-4.17,1.66-3.71.29-7.54-4.09-9.45Z"/>
          <path class="cls-16" d="M339.54,454.12c-4.69,7.02-14.81,11.08-21.09,10.11-1.21,2.03-1.79,4.04-1.51,5.66,1.5,8.45,19.83,4.39,26.48-5.87,3-4.6,2.02-8.96-3.88-9.9Z"/>
        </g>
        <g>
          <g>
            <path class="cls-16" d="M17.15,286.12l-.95-.66s-.01.02-.02.02c2.07,5.78,3.72,15.52,4.32,21.83.67,7.07.36,11.51-.75,11.58.61,1.68,1.22,2.96,1.82,3.52,1.52,1.44,2.06-3.22,1.28-11.33-.73-7.66-2.99-20.48-5.7-24.97Z"/>
            <path class="cls-16" d="M32.3,342.81c2.95,5.29,5.66,12.14,7.06,16.85,2.18,7.29,2.17,11.43-.05,10.04-.7-.44-1.49-1.28-2.33-2.41,1.68,3.02,3.33,5.35,4.68,6.19,2.21,1.39,2.23-2.75.04-10.04-1.77-5.93-5.61-15.33-9.41-20.62Z"/>
            <path class="cls-16" d="M492.45,263.03c-.35-6-1.91-13.1-4.54-15.23,1.21,3.17,1.95,7.54,2.17,11.45.76,13.26-3.17,24.54-7.37,21.22.66,1.7,1.42,3.04,2.32,3.77,4.22,3.37,8.17-7.93,7.42-21.21Z"/>
            <path class="cls-16" d="M480.64,303.19c.83,3.22.77,7.8.16,11.76-1.88,12.36-8.29,22.54-12.33,20.4.32,1.26.79,2.3,1.42,3.03,3.91,4.56,11.23-6.29,13.28-19.65.95-6.19.54-13.92-2.53-15.53Z"/>
            <path class="cls-16" d="M463.52,355.13c.25,2.85-.58,6.83-1.86,10.37-3.94,10.78-11.74,19.41-15.74,18.42.1.92.29,1.75.65,2.4,2.88,5.32,12.81-4.39,17.45-17.04,2.18-6.02,3.05-13.26-.5-14.15Z"/>
            <path class="cls-16" d="M64.23,401c.71,1.19,1.36,2.33,1.86,3.3,2.99,5.75,3.68,9.27,1.7,8.73-2.84-.75-8.33-7.37-12.8-14.16,4.68,7.9,11.77,17.04,15.15,17.94,1.99.54,1.31-2.98-1.69-8.73-1.01-1.94-2.5-4.46-4.22-7.08Z"/>
            <path class="cls-16" d="M104.78,450.4c-3.47.14-15.99-11.4-21.5-18.61,2.23,5.65,19.66,22.55,23.85,22.39,1.18-.04.31-2.05-2.12-5.33.38.94.37,1.52-.23,1.55Z"/>
            <path class="cls-16" d="M128.27,454.21c1.55,3.27.82,4.98-2.18,4.36-5.95-1.22-14.81-8.54-19.41-14.55,2.82,6.17,14.46,16.81,21.77,18.33,3.7.76,4-1.99.75-6.85-.26-.4-.6-.84-.93-1.29Z"/>
            <path class="cls-16" d="M162.18,482.95c-3.77.21-16.43-6.77-21.78-11.88-.55,4.12,19.24,15.93,24.13,15.66,2.38-.14,0-2.96-1.38-4.41-.06.35-.33.59-.98.63Z"/>
            <path class="cls-16" d="M188.25,485.03c.45,1.84-.68,3.06-4.48,2.46-6.18-1-13.36-5.18-17.01-8.94.67,4.1,10.93,11.36,19.37,12.71,5.24.85,5.45-1.77,3.34-4.75-.32-.45-.74-.95-1.22-1.47Z"/>
            <path class="cls-16" d="M377.15,448.24c-.22,1.55-1.03,3.29-2.08,4.78l-.84,1.11c-5.93,7.44-16.47,12.45-21.25,11.22-.06.46-.16.94-.09,1.33,1.09,6.26,16.16.69,23.7-8.79l.83-1.1c2.24-3.18,3.42-7.46-.27-8.56Z"/>
            <path class="cls-16" d="M436.02,401.27c-.18,2.16-1.14,4.82-2.36,7.09-.24.43-.55,1-.81,1.43-5.32,9-13.83,15.97-17.98,15.74-.07.73-.06,1.41.09,1.95,1.57,5.71,13.48-2.48,20.24-13.91.25-.43.57-1,.8-1.43,2.37-4.44,3.96-10.48.01-10.86Z"/>
            <path class="cls-16" d="M403.52,440.81c-.3.79-.66,1.48-.85,1.8-.53.91-1.53,2.41-3.25,4.37-5.37,6.07-13.67,11.72-18,12.46-.38.95-.57,1.77-.47,2.4.67,4.75,13.5-2.78,20.83-11.09,1.72-1.95,2.72-3.46,3.25-4.37.62-1.08,3.14-5.94-1.51-5.58Z"/>
            <path class="cls-16" d="M215,486.11c1.31,5.08-6.42,6.23-14.89,1.99-2.39-1.2-4.24-2.56-5.62-3.95.49,2.43,3.31,5.4,7.98,7.73,8.73,4.38,16.77,3.06,14.82-2.44-.36-.99-1.16-2.16-2.29-3.33Z"/>
            <path class="cls-16" d="M245.96,486.05c.06.36.12.72.1,1.05-.37,6.64-13.94,7.26-20.31,1.37.19.98.66,1.97,1.51,2.94,5.93,6.78,20.76,6.41,21.15-.53.08-1.47-.73-3.25-2.45-4.83Z"/>
            <path class="cls-16" d="M278.32,484.56c.04.72-.05,1.44-.4,2.16-2.95,6.31-14.89,7.94-20.14,4.09.03.28.03.57.12.83,2.31,7.28,18.84,6.44,22.38-1.14,1-2.13.31-4.36-1.96-5.94Z"/>
            <path class="cls-16" d="M311.04,481.52c-.19.92-.68,1.92-1.52,2.91-4.32,5.14-15.11,8.34-19.96,6.32-.02.2-.09.41-.08.6.39,6.94,16.81,3.5,22.39-3.15,2.27-2.68,2.14-5.36-.83-6.68Z"/>
            <path class="cls-16" d="M342.14,476.75c-.2.39-.4.78-.66,1.12-.47.65-1.36,1.61-2.18,2.33-5.19,4.61-14.34,8.28-18.92,7.97-.26.53-.42,1.02-.44,1.46-.35,5.37,14.5.73,21.71-5.66.81-.73,1.71-1.68,2.19-2.33,1.33-1.8,2.01-4.43-1.7-4.9Z"/>
            <path class="cls-16" d="M368.33,471.05c-.09.02-.19.05-.27.08-.77.87-1.92,1.96-3.73,3.36-4.43,3.38-10.72,6.74-15.04,8.23-1.5,1.54-2.43,2.86-2.48,3.64-.25,3.22,12.48-2.41,19.88-8.09,2.83-2.18,4.14-3.7,4.75-4.6.76-1.13,1.98-3.66-3.1-2.61Z"/>
          </g>
          <g>
            <path class="cls-16" d="M494.44,214.89c-.25.05-.62-.34-1.04-1.01.91,2.05,1.69,3.32,2.15,3.23,1.06-1.64-1.62-13.18-3.96-20.9-2.13-7.05-3.95-11.31-4.98-13.07,1.03,2.32,2.37,5.89,3.87,10.86,2.33,7.7,5.03,19.25,3.96,20.89Z"/>
            <path class="cls-16" d="M500.46,249.31c-.18-2.34-.73-8.2-1.82-12.26-.53-2.03-1.01-2.87-1.4-3.17.1.3.2.57.29.95,1.1,4.05,1.64,9.92,1.83,12.25.96,12.15.03,23.18-1.79,21.91.33,1.09.68,1.86,1.02,2.18,1.89,1.71,2.87-9.53,1.88-21.87Z"/>
            <path class="cls-16" d="M495.78,289.74c.41,2.23.31,5.42.27,6.44-.07,1.46-.24,3.87-.68,7-1.61,11.54-5.22,21.73-7.31,21.18.13.77.31,1.41.57,1.8,1.92,2.92,6.09-8.14,7.87-20.77.43-3.13.6-5.54.66-7,.08-1.53.26-8.05-1.36-8.66Z"/>
            <path class="cls-16" d="M482.71,342.74c.04.96-.11,2.07-.26,2.99-.29,1.73-.97,4.7-2.54,9-3.65,10.03-9.19,19.03-11.57,19.27,0,.81.09,1.46.34,1.84,1.63,2.56,8.19-7.49,12.34-18.89,1.56-4.3,2.25-7.27,2.54-9.01.35-2.1.59-5.12-.84-5.2Z"/>
            <path class="cls-16" d="M197.54,500.29c-4.62-.76-14.63-4.66-18.89-7.23-.42,0-.77.07-.87.29-.9,1.98,20.67,10.56,23.08,9.18-.05-.17-.18-.51-3.31-2.23Z"/>
            <path class="cls-16" d="M459.2,394.91c.68-1.93,1.36-4.72-.47-4.57-.14.78-.38,1.63-.65,2.35-.53,1.53-1.66,4.13-3.95,7.89-5.21,8.55-12.05,15.98-14.85,16.64-.14.65-.2,1.21-.09,1.57.81,3.3,9.66-5.52,16.05-15.99,2.29-3.76,3.41-6.35,3.96-7.88Z"/>
            <path class="cls-16" d="M427.33,431.68c-.88,1.91-3.05,4.79-5.97,7.94-5.6,6.05-12.67,11.67-16,13.14-.52.91-.82,1.64-.8,2.08.14,2.57,10.35-4.84,17.91-12.99,2.97-3.21,5.18-6.15,6.03-8.05,1.11-2.46-.13-2.43-1.17-2.12Z"/>
            <path class="cls-16" d="M217.21,502.94s-.04-.03-.05-.04c-.13.04-.3.09-.52.12-3.75.42-14.25-3-17.97-5.75-.02,0-.07.02-.08.05-1.97,2.56,14.29,8.47,19.15,7.93,1.79-.2.44-1.52-.53-2.3Z"/>
            <path class="cls-16" d="M238.69,503.27c-.47,2.4-8.31,1.68-13.49-.52-1.37-.59-2.39-1.21-3.12-1.84-.37,1.18,1.13,2.74,4.23,4.06,5.76,2.44,14.91,3.1,13.43-.37-.17-.4-.54-.85-1.04-1.33Z"/>
            <path class="cls-16" d="M262.16,502.27c-.02.16-.03.31-.11.46-1.69,3.5-12.15,3.63-15.73.84-.05.31-.05.61.05.89,1.53,4.09,14.87,4.48,16.8.49.4-.83.07-1.81-1.01-2.68Z"/>
            <path class="cls-16" d="M286.83,500.32c-.07.2-.2.39-.36.58l-.86.79c-3.54,2.69-12.14,4.18-15.4,2.85-.09.21-.17.4-.18.6-.23,3.65,12.24,2.15,16.69-1.22l.86-.8c.79-.94.74-2.08-.75-2.8Z"/>
            <path class="cls-16" d="M311.36,497.31c-.58.58-1.57,1.28-2.82,1.91-4.15,2.13-11.3,4.03-14.94,4.16-.57.49-1,.93-1.12,1.24-.98,2.48,11.21-.13,17.16-3.18,1.38-.7,2.5-1.48,3.03-2.1.31-.35,1.29-1.75-1.32-2.04Z"/>
            <path class="cls-16" d="M333.31,493.47c-.31.08-.63.17-.95.24-.93.53-2.03,1.1-3.54,1.77-3.16,1.37-6.96,2.67-10.21,3.61-3.2,1.6-5.55,3.02-5.9,3.52l.07.18c1.28.28,10.59-2.23,17.15-5.08,3.96-1.73,5.76-3.04,6.13-3.7.62-1.11-1.82-.69-2.74-.53Z"/>
            <path class="cls-16" d="M390.51,464.46c-.16.06-.32.15-.49.22-1.21,1.23-3.13,2.89-6.02,4.98-4.49,3.26-10.17,6.61-14.03,8.48-1.9,1.63-3.14,2.91-3.27,3.4-.46,1.77,10.73-4.1,18.42-9.65,4.95-3.58,7.14-5.96,7.56-7,.5-1.3-1.29-.72-2.16-.43Z"/>
          </g>
        </g>
      </g>
      <path class="cls-62" d="M347.23,492.71s.04-.02.05-.02c-.08.03-.16.07-.25.11l.21-.09Z"/>
      <path class="cls-63" d="M350.22,491.44c-.99.42-2.02.88-2.95,1.25.92-.37,1.61-.65,2.95-1.25Z"/>
      <path class="cls-57" d="M350.22,491.44c6.2-2.66,13.4-6.05,19.03-8.77l.34-.2-.84.35c-11.71,5.47-16.16,7.55-18.53,8.62Z"/>
    </g>
  </g>
  <g>
    <path class="cls-11" d="M272.83,180.12c-3.75,13.57-8.09,27.05-13.04,40.41-4.97,13.35-10.72,26.56-17.14,39.58-6.36,13.03-13.79,25.8-22.05,38.25-2.14,3.09-4.07,6.24-6.38,9.27l-6.62,8.88c5.95,6.36,12.88,12.12,21.44,16.93.15-.19.31-.38.47-.58,4.83-5.77,8.93-11.86,13.16-17.86l5.84-9.21c2-3.05,3.61-6.23,5.43-9.33,6.98-12.52,13.12-25.29,18.19-38.29,5.14-12.99,9.59-26.11,13.29-39.36,3.67-13.25,6.74-26.58,9.23-39.97,1.5-8.06,2.76-16.14,3.85-24.23-6.45,0-12.89,0-19.34,0-1.9,8.54-3.99,17.05-6.33,25.52Z"/>
    <g>
      <path class="cls-11" d="M174.81,276.84c-.33-.56-.96-1.03-1.51-1.5-27.77-23.4-41.85-51.28-49.78-81.16-1.13-4.27-1.59-8.64-2.59-12.93,4.77,4.62,7.99,10.36,13.5,14.45,2.98,2.21,8.91,4.88,13.31,6.61h0c.49.21,1.13.45,1.85.71.96.36,1.78.64,2.4.83,2.72.91,6.02,1.94,8.89,2.81.78,5.44,1.66,10.87,2.74,16.28,5.78,28.78,15.84,56.76,34.94,82.64,1.06,1.44,2.15,2.86,3.27,4.26l3.43-5.41c2-3.05,3.61-6.23,5.43-9.33,6.98-12.52,13.12-25.29,18.19-38.29,5.14-12.99,9.59-26.11,13.29-39.36,3.67-13.25,6.74-26.58,9.23-39.97,1.42-7.61,2.62-15.25,3.67-22.89-32,0-63.99,0-95.99,0-1.2,0-2.66-.3-3.55.09-2.02.89-4.86,1.92-5.3,3.25-.44,1.35,1.05,3.97,2.68,4.55,2.88,1.02,2.87,2.4,3.09,4.16,1.04,8.04,1.9,16.1,2.83,24.16-5.24-1.79-9.62-4.81-12.42-8.61-1.5-2.04-2.88-4.21-3.25-5.83-1.02-4.47-5.64-7.26-11.84-7.39-6.17-.13-12.35-.15-18.51.01-6.19.17-11.11,3.52-11.71,7.97-.3,2.22-.19,4.53.31,6.73,2.13,9.23,3.79,18.57,6.89,27.63,9.23,26.99,24.06,52.08,49.41,73.32,9.7,8.13,20.83,15.03,33.73,20.86-5.74-9.89-11.18-19.3-16.67-28.68Z"/>
      <path class="cls-11" d="M410.99,176.98c-.6-4.45-5.53-7.81-11.71-7.97-6.16-.17-12.34-.14-18.51-.01-6.2.13-10.83,2.92-11.84,7.39-.37,1.61-1.74,3.79-3.25,5.83-2.63,3.57-6.66,6.45-11.48,8.27.88-7.58,1.5-15.19,1.88-22.81.11-2.17-.28-4.33,3.71-5.45,1.36-.38,2.45-3.01,2.1-4.41-.3-1.2-2.67-2.3-4.43-3.05-1.04-.44-2.68-.16-4.05-.16-10.23,0-20.46,0-30.69,0-1.97,8.99-4.16,17.95-6.63,26.87-3.75,13.57-8.09,27.05-13.04,40.41-4.97,13.35-10.72,26.56-17.14,39.58-6.36,13.03-13.79,25.8-22.05,38.25-2.14,3.09-4.07,6.24-6.38,9.27l-6.79,9.11c-4.88,5.94-9.59,11.93-15.04,17.6-.62.68-1.25,1.34-1.88,2.01.09.29.16.57.18.83.05.54.07,1.08.1,1.62v9.61c0,8.89-4.41,17.54-12.69,24.07-4.39,3.46-9.75,6.88-15.81,9.15,0,0,0,0,0,0v9.22h0s-22.98,0-22.98,0l-10.23,7.46v32.39h167.44v-32.39l-10.23-7.46h-22.98v-9.22s0,0,0,0c-6.06-2.27-11.42-5.69-15.81-9.15-8.28-6.53-12.69-15.18-12.69-24.07v-10.65c.02-.24.02-.48.04-.73.1-1.19.93-2.78,2.17-3.41,15.8-8.03,26.24-19.22,34.9-31.41,13.48-18.99,22-39.25,28.22-60.07,3.66-12.27,6.48-24.61,8.55-37.02,2.7-.82,5.69-1.76,8.18-2.6.62-.19,1.44-.47,2.4-.83.72-.26,1.36-.5,1.85-.71h0c4.4-1.73,10.34-4.4,13.31-6.61,5.51-4.09,8.72-9.83,13.5-14.45-1,4.29-1.46,8.66-2.59,12.93-7.93,29.88-22.01,57.76-49.78,81.16-.56.47-1.19.94-1.51,1.5-5.49,9.39-10.93,18.79-16.67,28.68,12.91-5.83,24.04-12.74,33.73-20.86,25.35-21.25,40.18-46.33,49.41-73.32,3.1-9.07,4.76-18.4,6.89-27.63.51-2.2.61-4.51.31-6.73Z"/>
    </g>
  </g>
  <circle class="cls-15" cx="260.39" cy="253.25" r="56.66"/>
  <g>
    <polygon class="cls-14" points="217.36 140.02 248.58 119.94 279.8 140.02 267.87 107.53 299.09 87.45 260.5 87.45 248.58 54.96 236.65 87.45 198.07 87.45 229.28 107.53 217.36 140.02"/>
    <g>
      <polygon class="cls-13" points="137.87 138.71 156.8 126.54 175.73 138.71 168.5 119.01 187.42 106.84 164.03 106.84 156.8 87.13 149.57 106.84 126.17 106.84 145.1 119.01 137.87 138.71"/>
      <polygon class="cls-13" points="321.43 138.71 340.36 126.54 359.29 138.71 352.06 119.01 370.99 106.84 347.59 106.84 340.36 87.13 333.13 106.84 309.73 106.84 328.66 119.01 321.43 138.71"/>
    </g>
  </g>
  <path class="cls-58" d="M224.25,287.13c.1-.42.26-.86.43-1.37.64-1.84.84-3.83.22-5.71-.75-2.27-2.83-3.2-4.12-5.15-1.43-2.16-.41-5.14-1.06-7.52-.77-2.8-4.55-3.96-4.71-7.05-.06-1.12.87-2.17,1.11-3.24.36-1.56-.1-2.61-.59-4.06-1.34-3.96-.63-8.82,3.4-10.81,3.24-1.6,2.82-5.99,6.2-7.59,1.49-.71,2.3-.79,3.46-2.18,1.03-1.23,1.39-2.37,2.91-3.12,1.54-.75,2.13-.28,3.39-1.87,2.49-3.13,3.2-4.72,7.21-6.2,3.41-1.25,4.1-5.23,7.65-6.29,1.4-.42,2.64-.25,3.9-1.4,1.34-1.23,1.64-3.06,3.4-3.85,1.39-.61,3.15-.19,4.56-1.15,1.05-.72,1.6-1.92,2.67-2.62,1.21-.79,2.44-.36,3.7-.83,1.42-.53,1.39-1.15,2.15-2.1.89-1.1,1.96-.64,3.27-.37,2.11.43,2.93-1.38,4.57-2.09,2.99-1.28,5.74.71,8,2.5,1.24.99,2.32,2.19,3.65,3.06,1.48.97,2.89.8,4.46,1.38,3.17,1.18,4.73,4.53,7.13,6.67,1.44,1.29,3.15,2.04,5.11,1.88-1.18-2.44-4.58-4.77-6.63-6.59-2.49-2.19-5.08-4.27-7.87-6.08-19.91-12.89-47.2-10.29-65.57,4.39-24.91,19.92-28.96,56.26-9.04,81.17,3.65,4.56,8.11,8.59,12.83,11.93,1.21.86,3.23,2.15,4.62,2.17-.46-1.38-2.04-1.97-2.73-3.19-.62-1.1-.39-2.42-.97-3.53-1.37-2.62-4.88-3.62-6.29-6.25-.64-1.19-.67-2.01-.44-2.97Z"/>
  <g>
    <g>
      <path class="cls-59" d="M313.34,235.78c.54,1.56.98,3.8,1.02,5.2.28.82.58,1.52.9,1.78l.16.04c.95-.29-.5-7.51-1.65-8.22-.31-.19-.46.28-.44,1.2Z"/>
      <path class="cls-74" d="M303.86,223.73c2.3,1.7,3.96,6.71,2.14,7.3l-.14.03c.43.31.87.52,1.31.52l.19-.04c2-.66-.18-6.63-2.82-7.71-.26-.11-.48-.12-.68-.1Z"/>
      <path class="cls-75" d="M298.25,221.14c-.12.08-.3.14-.43.18-.25.04-.51.03-.76,0,.68.39,1.42.62,2.13.51.13-.04.32-.1.43-.18,1.87-1.24-.98-6.04-4.12-6.94-.13-.04-.25-.06-.37-.08,2.7,1.48,4.79,5.41,3.12,6.52Z"/>
      <path class="cls-76" d="M290.81,223.51l-.27.13c-.53.16-1.06.18-1.58.08.91.5,1.94.74,2.95.43l.27-.13c2.36-1.36.24-6.03-3.19-7.04-.13-.04-.25-.06-.37-.09,2.82,1.51,4.32,5.4,2.19,6.62Z"/>
      <path class="cls-70" d="M280.57,215.54c-.15.12-.37.25-.54.34-.85.32-1.73.32-2.56.13,1.18.59,2.59.89,3.93.38.17-.09.39-.21.54-.34,1.96-1.64-.21-5.05-3.49-5.84,2.47,1.25,3.8,3.94,2.12,5.34Z"/>
      <path class="cls-71" d="M271.62,220.13c-.09.06-.22.14-.32.2-1.07.52-2.15.55-3.13.32,1.26.68,2.89.97,4.49.19.09-.06.22-.13.31-.2,2.43-1.77.71-5.51-2.66-6.29,2.42,1.31,3.37,4.27,1.29,5.78Z"/>
      <path class="cls-72" d="M272.39,305.1c-.17-.14-1.13-.08-2.33.07-.81.3-2.02.63-3.24.85-.89.16-1.7.25-2.37.28-.17.07-.3.13-.35.19-.15.19.23.3.93.33,1.78-.51,5.74-1.16,6.83-1.32.33-.15.54-.29.53-.39Z"/>
      <path class="cls-73" d="M273.56,305.98l-.03-.02c-.09.03-.18.06-.28.1-1.25.38-2.52.7-3.8.96-1.25.24-2.53.44-2.8.43.13-.08,2.35-.62,4.34-1.09-2.3.4-5.35,1-5.47,1.34.34.19,2.41-.03,4.35-.45,1.64-.36,3.52-.96,3.7-1.27Z"/>
      <path class="cls-67" d="M275.49,306.12c-.06,0-7.24,1.69-7.48,1.83.27.01,1.55-.19,2.8-.43,1.28-.26,2.55-.58,3.8-.96.53-.18.86-.32.98-.41l-.03-.03h-.07Z"/>
      <path class="cls-68" d="M262.92,225.39c-.09.08-.23.17-.33.24-1.17.67-2.32.76-3.35.54,1.27.71,2.98.97,4.71-.04.1-.07.24-.16.33-.24,2.46-2,1.02-5.84-2.31-6.55,2.31,1.3,3.04,4.34.95,6.04Z"/>
      <path class="cls-69" d="M253.15,232.19c-1.21.8-2.39.94-3.42.75,1.26.72,2.99.95,4.78-.24,2.99-2.46,1.48-6.45-1.73-7.1-.02,0-.04,0-.07,0,2.26,1.31,2.99,4.51.44,6.6Z"/>
      <path class="cls-86" d="M259.81,302.86v.1c-.32.71-2.78.99-4.8.8-.59-.06-1.13-.15-1.61-.27.63.35,1.69.65,2.97.78,2.02.19,4.49-.08,4.8-.79v-.1c-.06-.37-.76-.69-1.72-.92.2.13.34.27.36.42Z"/>
      <path class="cls-84" d="M250.71,300.24c.24-1-1.58-2.08-3.55-2.68,1.36.61,2.37,1.41,2.19,2.17-.56,1.02-3,.81-4.67.33.32.15.68.3,1.06.42,1.66.54,4.38.84,4.97-.24Z"/>
      <path class="cls-80" d="M239.75,294.02c-.55.87-1.86.88-3.13.53,1.58.75,3.74,1.16,4.5-.03.65-1.71-2.11-3.89-4.53-4.55,1.97.94,3.7,2.65,3.17,4.04Z"/>
      <path class="cls-85" d="M236.35,279.68c-.81.91-1.88,1.08-2.92.86,1.37.74,3.12.97,4.29-.35,1.64-2.45-.87-5.9-3.64-6.47,2.14,1.19,3.64,3.93,2.28,5.96Z"/>
      <path class="cls-82" d="M237.89,260.65c-1.05.96-2.2,1.24-3.24,1.08,1.34.79,3.07.84,4.61-.57,2.55-2.87.71-7.08-2.42-7.66-.02,0-.03,0-.05,0,2.26,1.33,3.27,4.71,1.1,7.16Z"/>
      <path class="cls-79" d="M243.86,239.48c-1.17.88-2.32,1.08-3.32.9,1.22.74,2.93.92,4.68-.4,2.76-2.54,1.6-6.46-1.29-7.29-.14-.04-.28-.06-.42-.08,2.16,1.33,2.78,4.63.34,6.87Z"/>
      <path class="cls-83" d="M234.93,247.4c-1.08.91-2.14,1.17-3.08,1.04,1.17.73,2.8.87,4.45-.54,2.75-2.86,1.17-6.79-1.34-7.53-.17-.05-.34-.08-.5-.1,1.96,1.27,2.89,4.61.48,7.13Z"/>
    </g>
    <path class="cls-81" d="M256.45,308.42c.16.02.32.03.49.04,1.49.06,3.49.04,4.98.04,1.21-.04,2.48-.13,2.57-.23l-.12-.02c-.06,0-7.66.12-7.92.18Z"/>
    <path class="cls-78" d="M244.42,306.37c.1.05.25.1.85.26l1.22.31,4.15.83c.79.13,1.76.27,1.88.18l-.12-.05c-.69-.21-7.81-1.63-7.98-1.53Z"/>
    <path class="cls-77" d="M233.15,301.82c.19.23,1.65.94,2.27,1.23l2.18.97.36.15c1.4.57,2.73,1.07,2.93.96l-.09-.09c-.97-.64-7.29-3.38-7.64-3.22Z"/>
    <g>
      <path class="cls-96" d="M314.41,233.68l.12.1c.06-.24-.36-1.48-.73-2.47l-1.41-3.48c-.86-1.93-1.01-1.99-1.08-2.01-.04.25.44,1.61.86,2.71.42,1.12,1.65,4.24,2.24,5.16Z"/>
      <path class="cls-95" d="M310.81,229.57h-.23c-.51-.22-1.1-.96-1.64-1.86.68,1.64,1.85,3.76,2.78,4.15h.23c.84-.35-.3-3.79-1.64-6.02.72,1.77,1.08,3.49.5,3.73Z"/>
      <path class="cls-92" d="M308.93,222.24l.16.06c.54-.09-1.85-3.85-3.55-5.94,1.28,1.86,2.38,3.78,2,3.84l-.16-.06c-.32-.24-.75-.71-1.21-1.28.92,1.34,2.09,2.88,2.77,3.38Z"/>
      <path class="cls-91" d="M303.48,218.85l-.3.06c-.69-.1-1.5-.68-2.27-1.44,1,1.53,2.81,3.52,4.13,3.71l.3-.06c1.02-.52-.9-3.88-2.86-5.8,1.06,1.59,1.68,3.18,1,3.53Z"/>
      <path class="cls-93" d="M294.53,209.75c-.13.13-.33.17-.49.2-1.06.03-2.39-.66-3.54-1.5.06.07.1.13.17.2,1.2,1.32,3.66,3.16,5.38,3.12.16-.03.35-.07.49-.2.76-.77-.92-2.87-2.9-4.31.89,1.02,1.36,2.01.89,2.49Z"/>
      <path class="cls-90" d="M285.63,211.05c-.86-.1-1.8-.55-2.62-1.14.1.19.21.38.33.57.87,1.27,2.68,2.59,4.25,2.77,1.13.13,2.48-.63,2.44-1.85-.04-1.18-.97-2.23-2.13-3,.1.26.16.53.17.8.04,1.22-1.31,1.98-2.44,1.85Z"/>
      <path class="cls-94" d="M283.4,202.46c-.15.24-.39.31-.65.39-1.55.26-3.62-.56-5.04-1.41.19.38.58.82,1.17,1.27,1.3,1.01,3.98,2.28,5.87,1.97.26-.08.5-.15.65-.39.42-.68-.59-1.75-2.04-2.63.15.3.18.58.04.8Z"/>
      <path class="cls-87" d="M276.24,204.71c-.2.21-.46.33-.67.43-1.62.54-3.52.03-4.88-.7.17.33.43.68.82,1.02,1.21,1.06,3.88,2.23,6.07,1.5.21-.1.47-.22.67-.43.97-1-.07-2.48-1.84-3.43.29.57.28,1.14-.17,1.6Z"/>
      <path class="cls-88" d="M268.19,208.3c-.24.27-.53.44-.77.57-1.68.76-3.45.44-4.75-.19.14.29.34.59.63.88,1.11,1.13,3.74,2.23,6.14,1.14.24-.14.53-.31.77-.57,1.18-1.3.18-3.06-1.73-3.98.35.72.32,1.5-.28,2.15Z"/>
      <path class="cls-89" d="M255.78,305.87c-1.03-.04-2.14-.15-3.05-.29-.09.47,1.78.99,4,1.08,2.04.08,4.34-.22,4.36-.75-.09-.18-.51-.34-1.1-.47-.02.3-1.95.52-4.21.43Z"/>
      <path class="cls-106" d="M257.9,307.19c1.07.06,1.93.15,2.19.29.25.28-1.44.55-3.47.57.57.04,1.17.06,1.74.06,2.17,0,4.05-.29,3.79-.58-.42-.22-2.36-.34-4.25-.35Z"/>
      <path class="cls-104" d="M247.26,303.38c-.11.46-.99.59-2.05.53.05.01.09.03.14.04,1.76.46,4.31.66,4.5-.15-.14-1.14-4.18-2.35-6.51-2.49,1.93.48,3.82,1.28,3.92,2.06Z"/>
      <path class="cls-101" d="M248.68,305.98c.17.47-1.64.38-3.5.02.42.12.86.23,1.31.33,2,.44,4.1.56,3.92.06-.42-.5-2.41-1.1-4.31-1.5,1.24.34,2.28.73,2.58,1.08Z"/>
      <path class="cls-102" d="M236.95,297.48c-.36.95-2.54.55-4.4-.36.55.55,1.35,1.13,2.3,1.61,1.89.95,4.15,1.37,4.51.41.09-1-1.45-2.26-3.18-3.12.5.5.81,1.01.76,1.47Z"/>
      <path class="cls-103" d="M237.44,301.4c.05.7-1.99.2-3.91-.67-.55-.25-1.06-.51-1.53-.78.62.61,1.86,1.4,3.33,2.07,1.92.87,3.95,1.37,3.91.67-.18-.48-1.05-1.12-2.13-1.73.15.16.27.31.32.45Z"/>
      <path class="cls-105" d="M229.91,267.34c-1.2,1.26-2.58,1.19-3.71.62.08.12.16.25.25.37,1.08,1.41,3.52,2.88,5.47.83,1.85-2.48.37-5.98-2.01-7.13.99,1.56,1.23,3.66,0,5.31Z"/>
      <path class="cls-98" d="M226.12,254.32c-1.14,1.11-2.31,1.23-3.3.85.01.02.02.05.04.07.91,1.62,3.16,2.97,5.27.91,2.24-2.71,1.08-6.75-1.43-7.65.9,1.66.91,4.03-.57,5.82Z"/>
      <path class="cls-99" d="M219.49,262.13c-.8.91-1.69,1.02-2.51.71.96,1.58,2.92,2.93,4.51,1.11,1.76-2.58.18-6.78-2.14-7.62,1,1.69,1.29,4.09.13,5.79Z"/>
      <path class="cls-100" d="M259.73,213.09c-.16.15-.41.32-.59.44-1.65.9-3.3.75-4.54.21.11.25.26.49.46.73,1.01,1.19,3.56,2.26,6.09.89.18-.12.43-.29.59-.44,1.67-1.56.82-3.8-1.36-4.72.43.94.29,2.02-.64,2.89Z"/>
      <path class="cls-97" d="M249.98,219.03c-1.63,1.03-3.2.98-4.36.48.08.37.24.74.49,1.1.91,1.28,3.34,2.34,5.92.71,2.53-1.95,1.74-4.76-.56-5.71.25,1.11-.15,2.38-1.49,3.42Z"/>
      <path class="cls-116" d="M240.75,225.56c-1.5,1.08-2.9,1.13-3.98.72.06.42.2.84.43,1.24.81,1.36,3.1,2.46,5.65.62,2.57-2.22,1.85-5.39-.53-6.26.17,1.19-.28,2.55-1.58,3.68Z"/>
      <path class="cls-115" d="M231.75,232.92c-1.29,1.05-2.48,1.2-3.43.91.06.39.17.77.35,1.14.72,1.45,2.84,2.61,5.27.63,2.66-2.59,1.65-5.92-.41-6.72-.07-.03-.15-.04-.22-.06.2,1.27-.2,2.78-1.55,4.1Z"/>
      <path class="cls-114" d="M223.39,241.01c-1.04.96-2.01,1.19-2.82,1.01.06.26.13.52.24.77.65,1.54,2.57,2.78,4.8.72,2.43-2.69,1.53-6.22-.34-7.09-.17-.08-.35-.14-.53-.18.34,1.43.04,3.24-1.35,4.78Z"/>
      <path class="cls-113" d="M216.08,248.8c-.68.73-1.34.96-1.93.89.05.19.11.39.18.58.61,1.61,2.26,3.03,4.04,1.13,1.92-2.52,1.18-6.49-.78-7.39-.19-.09-.38-.13-.57-.16.39,1.55.17,3.49-.94,4.95Z"/>
      <path class="cls-112" d="M231.5,284.41c-.92,1.26-2.7.86-4.1.03.29.39.63.78,1.05,1.14,1.41,1.22,3.91,2.22,5.05.65.88-1.74-.75-4.12-2.73-5.34.85,1.13,1.26,2.44.72,3.51Z"/>
      <path class="cls-110" d="M228.64,290.04c-.6,1.15-2.5.49-3.94-.47.39.48.87.97,1.45,1.42,1.46,1.15,3.82,2.17,4.49.87.38-1.37-1.21-3.31-2.98-4.52.75.92,1.19,1.91.98,2.7Z"/>
      <path class="cls-111" d="M224.68,274.11c-.88,1.09-2.1.99-3.2.42.09.13.17.25.27.37,1.2,1.48,3.52,2.78,4.93,1.04,1.34-2.24-.4-5.63-2.65-6.82,1.07,1.52,1.53,3.52.65,5Z"/>
    </g>
    <path class="cls-107" d="M221.69,293.97l.09.08s-.09-.08-.13-.12c.01.01.03.03.04.04Z"/>
    <path class="cls-108" d="M249.23,194.66h-.03c-.8.17-1.73.39-2.65.61.59-.13,1.37-.31,2.46-.55l.22-.06Z"/>
    <path class="cls-109" d="M244.07,195.88l-.23.07c.81-.21,1.76-.45,2.71-.68-1.52.34-1.73.4-2.48.61Z"/>
    <path class="cls-117" d="M233.17,200.27l-.22.1c-.59.32-1.36.76-1.94,1.09l-.42.25c.75-.44,1.53-.82,2.29-1.24.29-.17.29-.17.3-.19Z"/>
    <path class="cls-121" d="M218.69,211.11l-.29.3c-.55.58-1.25,1.37-1.79,1.97l-.04.07c.05-.04.12-.11.29-.29.61-.67,1.19-1.39,1.82-2.04Z"/>
    <g>
      <g>
        <path class="cls-16" d="M225.68,295.24c.63.46,1.38.91,2.06,1.21-2.26-1.68-3.64-3.69-2.68-3.94.31-.08.81.05,1.4.32-1.42-1.03-2.93-1.78-3.57-1.61-.98.26.45,2.33,2.78,4.03Z"/>
        <path class="cls-16" d="M220.66,282.33c-2.17-2.55-2.46-5.65-.51-5.63.12,0,.24.02.37.05-.84-.79-1.76-1.33-2.54-1.34-1.94-.02-1.66,3.08.51,5.63.75.87,1.83,1.72,2.77,1.92-.22-.2-.42-.41-.6-.63Z"/>
        <path class="cls-16" d="M215.88,271.12c-.26-.31-.49-.64-.68-.98-1.58-2.8-1.21-6.02.49-6.09-.5-.61-1.06-1.06-1.63-1.23-2.16-.66-2.78,2.94-1.04,6.02.67,1.18,1.82,2.33,2.85,2.27Z"/>
        <path class="cls-16" d="M212.43,258.72c-.16-.28-.3-.59-.4-.9-.93-2.65-.26-5.57,1.05-6.07-.32-.56-.71-.99-1.14-1.21-1.94-.98-3.22,2.72-2.08,5.98.47,1.35,1.49,2.64,2.57,2.19Z"/>
        <path class="cls-16" d="M268.41,199.46c-.38-.48-.25-.9.47-1.13,1.29-.41,3.4-.08,5.03.51-.9-1.22-5.12-2.46-7.2-1.81-1.11.35-.83,1.19.67,1.98.28.15.64.3,1.03.44Z"/>
        <path class="cls-16" d="M261.69,202.79c-.72-.91-.2-1.83,1.46-2.17,1.26-.25,2.62-.11,3.75.24-.86-1.14-3.58-2-5.92-1.53-2.05.41-2.4,1.72-.76,2.8.36.24.88.47,1.46.66Z"/>
        <path class="cls-16" d="M252.43,206.41c.4.34,1.01.65,1.74.84-1.02-1.38.22-2.94,2.76-3.19.79-.08,1.54-.01,2.2.16-.69-.95-2.39-1.64-4.36-1.45-2.84.28-4.06,2.19-2.34,3.65Z"/>
        <path class="cls-16" d="M250.22,201.08c-.07-.46.37-.94,1.31-1.27,1.22-.44,2.65-.5,3.82-.31-.08-1.21-3.49-1.88-5.98-.98-1.61.57-1.79,1.54-.41,2.2.32.15.76.28,1.26.37Z"/>
        <path class="cls-16" d="M250.72,208.31c.23.01.45.05.66.09-.49-.75-1.48-1.31-2.83-1.38-3.19-.19-5.51,2.43-3.81,4.32.4.44,1.09.82,1.94,1-1.22-1.85,1.01-4.19,4.03-4.02Z"/>
        <path class="cls-16" d="M236.52,217.31c.38.57,1.14,1.06,2.11,1.19-1.36-2.27,1.38-5.19,4.34-4.77-.35-.58-.96-1.03-1.78-1.23-3.15-.76-6.25,2.44-4.67,4.82Z"/>
        <path class="cls-16" d="M228.47,223.9c.35.73,1.15,1.33,2.21,1.36-.01-.03-.03-.05-.04-.07-1.16-2.43,1.28-5.55,3.87-5.43-.31-.55-.78-.98-1.39-1.17-2.84-.89-5.92,2.63-4.65,5.31Z"/>
        <path class="cls-16" d="M220.88,230.92c.3.91,1.13,1.67,2.28,1.54-.04-.08-.08-.16-.11-.25-.83-2.48,1.23-5.63,3.36-5.84-.25-.52-.62-.94-1.09-1.14-1.5-.65-3.21.57-4.07,2.29-.01.03-.03.06-.05.08-.49,1.04-.68,2.24-.32,3.31Z"/>
        <path class="cls-16" d="M216.46,239.82c-.06-.15-.11-.29-.15-.45-.6-2.57.91-5.53,2.6-6-.2-.5-.49-.9-.85-1.11-2.08-1.29-4.68,2.57-3.92,5.82.27,1.14,1.11,2.14,2.31,1.74Z"/>
        <path class="cls-16" d="M211.24,246.51c-.06-.19-.1-.38-.14-.58-.4-2.32.37-4.78,1.42-5.59-.19-.6-.45-1.08-.78-1.34-1.59-1.23-3.38,2.35-2.81,5.63.25,1.43,1.1,2.78,2.3,1.87Z"/>
        <path class="cls-16" d="M243.97,205.2c-.3-1,.95-2.13,3.01-2.43.6-.09,1.15-.08,1.66-.02-.23-.94-1.82-1.56-3.82-1.28-2.61.38-3.93,2.1-2.44,3.18.35.26.92.46,1.59.55Z"/>
        <path class="cls-16" d="M237.07,210.32c-.58-1.57,1.64-3.48,4.13-3.32-.2-.66-.88-1.17-1.98-1.29-2.86-.3-5.45,2.17-4.01,3.83.35.4,1.01.72,1.86.77Z"/>
        <path class="cls-16" d="M230.13,216.05c-.56-1.79,1.47-3.99,3.54-4.08-.17-.55-.59-.98-1.22-1.18-2.46-.75-5.43,2.17-4.37,4.28.3.59,1.03,1.06,2.04.98Z"/>
        <path class="cls-16" d="M223.4,222.17c-.37-1.91,1.31-4.2,2.98-4.62-.14-.54-.44-.97-.85-1.18-1.96-1.01-4.91,2.22-4.27,4.67.24.92,1.05,1.43,2.14,1.13Z"/>
        <path class="cls-16" d="M217.14,228.54c-.17-1.98,1.09-4.21,2.39-4.95-.08-.55-.26-1.01-.55-1.26-1.51-1.33-4.28,2.1-4,4.96.12,1.28.94,1.94,2.17,1.25Z"/>
      </g>
      <g>
        <g>
          <path class="cls-16" d="M300.93,212.07l.27-.02s0,0,0,0c-1.23-.76-2.96-2.3-3.99-3.37-1.16-1.2-1.75-2.06-1.56-2.23-.36-.22-.66-.36-.85-.38-.49-.04.09.89,1.43,2.27,1.26,1.3,3.55,3.32,4.71,3.75Z"/>
          <path class="cls-16" d="M289.84,203.89c-1.32-.54-2.82-1.4-3.77-2.06-1.47-1.02-2.08-1.78-1.46-1.85.19-.02.46.02.78.1-.75-.31-1.4-.49-1.77-.45-.61.07,0,.83,1.46,1.85,1.2.83,3.28,1.99,4.75,2.4Z"/>
          <path class="cls-16" d="M217.11,286.03c.94,1.05,2.27,2.12,3.07,2.13-.69-.4-1.46-1.1-2.08-1.78-2.09-2.32-3.02-4.97-1.76-4.98-.37-.21-.71-.35-.98-.35-1.27,0-.34,2.65,1.75,4.98Z"/>
          <path class="cls-16" d="M213.39,276.93c-.62-.47-1.29-1.32-1.75-2.13-1.47-2.54-1.79-5.35-.73-5.55-.24-.18-.48-.31-.7-.35-1.39-.26-1.14,2.8.45,5.55.73,1.28,1.94,2.63,2.74,2.48Z"/>
          <path class="cls-16" d="M208.91,264.89c-.46-.49-.9-1.34-1.18-2.18-.86-2.56-.69-5.28.19-5.69-.15-.15-.31-.28-.47-.35-1.31-.55-1.71,2.69-.7,5.69.48,1.42,1.39,2.88,2.17,2.52Z"/>
          <path class="cls-16" d="M275.44,197.9c-.3-.11-.59-.23-.83-.33-1.39-.62-2.03-1.16-1.59-1.35.63-.28,2.61.13,4.43.72-2.02-.76-4.66-1.4-5.41-1.07-.44.19.2.74,1.59,1.35.47.21,1.11.45,1.81.68Z"/>
          <path class="cls-16" d="M260.76,194.78c.62-.53,4.61-.25,6.67.26-1.24-.71-6.92-1.25-7.66-.61-.21.18.24.42,1.17.67-.21-.12-.29-.23-.18-.32Z"/>
          <path class="cls-16" d="M255.89,197.53c-.76-.37-.88-.79-.24-1.12,1.27-.65,3.97-.61,5.69-.18-1.42-.72-5.12-.96-6.68-.17-.79.4-.44.95.87,1.37.11.04.23.07.36.1Z"/>
          <path class="cls-16" d="M245.45,197.23c.66-.59,4.01-1.17,5.74-1.02-.5-.84-5.87-.1-6.72.67-.42.37.43.54.9.61-.04-.07-.03-.16.09-.26Z"/>
          <path class="cls-16" d="M240.36,200.67c-.35-.27-.32-.66.46-1.11,1.28-.72,3.21-1.01,4.43-.85-.73-.65-3.67-.48-5.42.51-1.09.61-.74,1.12.08,1.36.12.04.28.07.44.09Z"/>
          <path class="cls-16" d="M211.1,235.13c-.19-.32-.29-.76-.32-1.18v-.33c-.01-2.23,1.19-4.7,2.24-5.18-.06-.09-.11-.2-.18-.26-1.12-.99-3.07,2.24-3.06,5.09v.32c.07.91.48,1.87,1.31,1.53Z"/>
          <path class="cls-16" d="M207.19,252.39c-.28-.42-.5-1.05-.61-1.65-.02-.11-.05-.26-.06-.38-.34-2.43.2-4.96.99-5.53-.09-.15-.2-.27-.3-.34-1.13-.82-2.11,2.43-1.67,5.52.02.12.04.27.06.38.22,1.16.81,2.5,1.59,1.99Z"/>
          <path class="cls-16" d="M207.35,240.36c-.06-.19-.1-.37-.11-.46-.04-.25-.07-.67-.04-1.28.09-1.9.79-4.16,1.47-4.93-.07-.23-.16-.41-.27-.51-.82-.77-2.07,2.49-2.2,5.09-.03.61,0,1.03.04,1.28.05.29.3,1.55,1.1.8Z"/>
          <path class="cls-16" d="M235.3,204.4c-.99-.74.26-2.08,2.44-2.55.61-.13,1.15-.15,1.61-.1-.45-.37-1.4-.5-2.6-.25-2.24.48-3.52,1.9-2.36,2.62.21.13.53.23.91.27Z"/>
          <path class="cls-16" d="M229.62,208.95c-.06-.06-.13-.11-.17-.18-.91-1.27,1.49-3.38,3.53-3.23-.18-.15-.41-.27-.71-.32-2.08-.37-4.75,1.87-3.8,3.2.2.28.61.49,1.16.53Z"/>
          <path class="cls-16" d="M223.91,213.97c-.11-.13-.2-.27-.24-.45-.39-1.59,1.57-3.64,3.09-3.7-.05-.05-.09-.1-.14-.14-1.49-1-4.4,1.58-3.94,3.49.13.54.58.84,1.23.8Z"/>
          <path class="cls-16" d="M218.35,219.33c-.1-.2-.16-.45-.15-.76.04-1.58,1.55-3.75,2.73-4.09-.02-.04-.04-.09-.07-.12-1.09-1.22-3.6,1.82-3.65,3.86-.02.82.39,1.3,1.13,1.1Z"/>
          <path class="cls-16" d="M213.34,224.77c-.02-.1-.04-.2-.04-.3,0-.19.01-.5.06-.75.28-1.61,1.42-3.62,2.3-4.24-.03-.14-.07-.25-.13-.33-.72-1.04-2.77,1.99-3.15,4.22-.04.25-.07.56-.06.75.02.52.28,1.11,1.03.65Z"/>
          <path class="cls-16" d="M209.37,229.65s.03-.04.04-.05c.01-.27.06-.64.19-1.16.32-1.27.98-2.81,1.55-3.72.05-.5.03-.88-.08-1.03-.43-.63-1.94,2.27-2.46,4.4-.2.81-.22,1.29-.2,1.54.03.32.17.96.95.02Z"/>
        </g>
        <g>
          <path class="cls-16" d="M223.81,295.15s.16-.03.34.03c-.47-.24-.8-.36-.87-.28.05.46,2.23,2.18,3.79,3.25,1.42.98,2.38,1.5,2.83,1.67-.53-.27-1.3-.73-2.3-1.42-1.56-1.07-3.75-2.8-3.79-3.25Z"/>
          <path class="cls-16" d="M217.66,289.72c.38.4,1.34,1.4,2.13,1.98.4.29.61.38.72.38-.06-.04-.12-.08-.19-.13-.8-.58-1.76-1.58-2.13-1.98-1.96-2.09-3.41-4.25-2.89-4.28-.22-.15-.4-.24-.51-.25-.6-.04.87,2.17,2.86,4.29Z"/>
          <path class="cls-16" d="M212.59,281.62c-.4-.35-.85-.95-.99-1.14-.2-.28-.52-.75-.9-1.39-1.4-2.35-2.23-4.75-1.77-4.96-.14-.12-.26-.21-.37-.25-.78-.25.08,2.39,1.6,4.97.38.64.7,1.1.91,1.38.21.29,1.13,1.52,1.52,1.39Z"/>
          <path class="cls-16" d="M207.21,269.97c-.15-.17-.28-.4-.39-.59-.2-.36-.51-1-.85-2.02-.8-2.38-1.11-4.84-.7-5.23-.12-.15-.23-.25-.33-.29-.67-.23-.4,2.58.51,5.28.34,1.02.65,1.66.85,2.03.24.44.64,1.03.92.83Z"/>
          <path class="cls-16" d="M236.42,199.24c.96-.54,3.37-1.29,4.53-1.44.08-.06.13-.13.12-.18-.13-.49-5.34,1.09-5.58,1.7.04.02.11.07.94-.08Z"/>
          <path class="cls-16" d="M203.87,256.95c.16.45.44,1.07.76.77-.09-.16-.17-.35-.23-.53-.13-.36-.3-1-.43-2.03-.3-2.33-.13-4.7.28-5.23-.07-.14-.14-.25-.21-.3-.63-.49-.96,2.43-.6,5.29.13,1.03.31,1.67.43,2.03Z"/>
          <path class="cls-16" d="M204.32,245.53c-.12-.48-.14-1.33-.07-2.33.14-1.93.61-4,1.01-4.76-.04-.24-.09-.42-.16-.5-.4-.45-1.19,2.41-1.38,5.01-.07,1.02-.05,1.89.07,2.36.16.61.38.43.53.22Z"/>
          <path class="cls-16" d="M232.42,201.64s.01,0,.02,0c.02-.03.04-.06.08-.1.63-.63,3.05-1.54,4.14-1.58,0,0,0-.01,0-.02-.02-.76-3.86.54-4.68,1.36-.3.3.14.34.43.34Z"/>
          <path class="cls-16" d="M228.43,204.73c-.27-.51,1.28-1.53,2.55-1.88.34-.09.62-.13.84-.12-.11-.27-.61-.34-1.37-.12-1.41.4-3.19,1.62-2.41,2.04.09.05.22.08.39.09Z"/>
          <path class="cls-16" d="M224.27,208.35s-.04-.06-.05-.1c-.2-.89,1.7-2.45,2.76-2.46-.04-.06-.08-.12-.14-.16-.88-.53-3.39,1.36-3.15,2.37.05.21.25.34.58.34Z"/>
          <path class="cls-16" d="M220.03,212.33s-.02-.1-.02-.16l.04-.27c.26-1.01,1.61-2.55,2.41-2.78-.01-.05-.03-.1-.05-.14-.49-.7-2.56,1.4-2.88,2.67l-.04.27c0,.29.17.49.55.4Z"/>
          <path class="cls-16" d="M215.97,216.48c.02-.19.1-.46.24-.76.45-1,1.48-2.4,2.13-2.95.03-.17.05-.32.02-.39-.18-.6-2.04,1.67-2.68,3.1-.15.33-.24.64-.25.83,0,.11.02.51.54.18Z"/>
          <path class="cls-16" d="M212.51,220.4c.05-.06.09-.12.14-.18.09-.23.21-.5.39-.84.38-.71.89-1.51,1.34-2.16.35-.76.58-1.37.57-1.51l-.04-.02c-.28.14-1.62,1.96-2.4,3.45-.47.9-.61,1.4-.58,1.58.05.29.43-.14.58-.31Z"/>
          <path class="cls-16" d="M206.27,234.12s.04-.07.06-.11c.04-.4.15-.99.37-1.8.35-1.26.9-2.71,1.33-3.61.11-.58.15-.99.1-1.1-.18-.39-1.37,2.33-1.96,4.47-.38,1.38-.44,2.14-.36,2.39.1.31.34-.06.46-.24Z"/>
        </g>
      </g>
    </g>
    <path class="cls-120" d="M210.07,222.59s0,0,0,.01c.01-.02.02-.04.03-.06l-.02.05Z"/>
    <path class="cls-119" d="M209.71,223.26c.12-.22.24-.46.36-.66-.12.2-.2.35-.36.66Z"/>
    <path class="cls-118" d="M210.23,223.91c-.9,1.2-1.92,2.64-2.72,3.76l-.04.07.12-.16c1.66-2.32,2.3-3.21,2.64-3.67Z"/>
  </g>
</svg>